<?xml version="1.0" encoding="UTF-8"?>
<svg xmlns="http://www.w3.org/2000/svg" version="1.1" viewBox="0 0 1024 1024">
  <defs>
    <style>
      .cls-1 {
        fill: #fefefe;
      }

      .cls-1, .cls-2, .cls-3 {
        fill-rule: evenodd;
      }

      .cls-2 {
        fill: #020305;
      }

      .cls-3 {
        fill: #fdfdfd;
      }
    </style>
  </defs>
  <!-- Generator: Adobe Illustrator 28.7.1, SVG Export Plug-In . SVG Version: 1.2.0 Build 142)  -->
  <g>
    <g id="_Слой_1" data-name="Слой_1">
      <path class="cls-2" d="M832.5,150.5c10.6-.8,17.1,3.9,19.5,14,.7,42.3.7,84.7,0,127-5.4,12.5-14.3,15.7-26.5,9.5-2.6-1.9-4.4-4.4-5.5-7.5-1.5-25.3-2-50.6-1.5-76-2.9,1.3-5.4,3.3-7.5,6-70.5,83.5-141.3,166.6-212.5,249.5-8.2,5.1-15.8,4.5-23-2l-120-96c-9.8-8.5-19.7-17-29.5-25.5-74.1,73.1-148,146.6-221.5,220.5-7.5,3.5-14.8,3.2-22-1-6.5-8-6.7-16.1-.5-24.5,60.7-62,122-123.3,184-184,15.2-15.8,30.3-31.7,45.5-47.5,7.4-5.5,15.1-5.8,23-1,50.8,41.2,101.8,81.9,153,122,33.4-39.3,66.9-78.4,100.5-117.5,32.8-39.7,65.7-79.3,98.5-119-.7-.3-1.3-.7-2-1-17,3-34,6.1-51,9.5-6.3,1.2-12.6,1.5-19,1-12.6-6-15.5-15.2-8.5-27.5,4-3.9,8.9-6.1,14.5-6.5,37.6-6.8,75-14.3,112-22.5Z"/>
      <path class="cls-2" d="M703.5,386.5c43.7-.2,87.3,0,131,.5,5.2,2.5,9,6.3,11.5,11.5.5,146.7.7,293.3.5,440,12.7-.2,25.3,0,38,.5,9.9,3.3,14.1,10.1,12.5,20.5-2.2,6.6-6.7,10.7-13.5,12.5-248,.7-496,.7-744,0-13.1-4.7-17-13.6-11.5-26.5,2.3-2.9,5.1-5.1,8.5-6.5,12.9-.2,25.7-.7,38.5-1.5.3-73.7.7-147.3,1-221,2.7-7.4,7.9-11.9,15.5-13.5,41-.7,82-.7,123,0,8.1,1.7,13.2,6.6,15.5,14.5.3,73.3.7,146.7,1,220,33.1,1.2,66.3,1.3,99.5.5.8-109.1,1.3-218.3,1.5-327.5,2.6-6.9,7.4-11.4,14.5-13.5,43-.7,86-.7,129,0,7.1,1.9,11.6,6.4,13.5,13.5.5,109.3.7,218.7.5,328,33.6.3,67.1,0,100.5-1,.3-146,.7-292,1-438,2.4-6.2,6.5-10.5,12.5-13Z"/>
      <path class="cls-1" d="M725.5,420.5c28.9-.3,57.7,0,86.5,1,.5,139,.7,278,.5,417h-88c-.3-139.4,0-278.7,1-418Z"/>
      <path class="cls-1" d="M466.5,530.5c29.6-.3,59.1,0,88.5,1,.5,102.3.7,204.7.5,307-29.9.3-59.7,0-89.5-1-.8-102.4-.7-204.7.5-307Z"/>
      <path class="cls-3" d="M209.5,636.5c28.9-.3,57.7,0,86.5,1,.5,67,.7,134,.5,201h-87v-202Z"/>
    </g>
  </g>
</svg>