<?xml version="1.0" encoding="UTF-8"?>
<!DOCTYPE svg PUBLIC "-//W3C//DTD SVG 1.1//EN" "http://www.w3.org/Graphics/SVG/1.1/DTD/svg11.dtd">
<svg xmlns="http://www.w3.org/2000/svg" version="1.1" width="1024px" height="1024px" style="shape-rendering:geometricPrecision; text-rendering:geometricPrecision; image-rendering:optimizeQuality; fill-rule:evenodd; clip-rule:evenodd" xmlns:xlink="http://www.w3.org/1999/xlink">
<g><path style="opacity:0.453" fill="#b4b3b1" d="M 76.5,0.5 C 76.5,0.166667 76.5,-0.166667 76.5,-0.5C 392.167,-0.5 707.833,-0.5 1023.5,-0.5C 1023.5,0.5 1023.5,1.5 1023.5,2.5C 708.041,0.501849 392.374,-0.164818 76.5,0.5 Z"/></g>
<g><path style="opacity:0.004" fill="#babbbb" d="M -0.5,2.5 C 0.833333,3.16667 0.833333,3.16667 -0.5,2.5 Z"/></g>
<g><path style="opacity:0.004" fill="#babbba" d="M -0.5,4.5 C 0.833333,5.16667 0.833333,5.16667 -0.5,4.5 Z"/></g>
<g><path style="opacity:0.004" fill="#b7b8b7" d="M -0.5,6.5 C 0.833333,7.16667 0.833333,7.16667 -0.5,6.5 Z"/></g>
<g><path style="opacity:0.008" fill="#aaacab" d="M 1023.5,10.5 C 1023.5,10.8333 1023.5,11.1667 1023.5,11.5C 1022.83,11.0187 1022.83,10.6853 1023.5,10.5 Z"/></g>
<g><path style="opacity:0.004" fill="#a9aba9" d="M 1023.5,12.5 C 1023.5,12.8333 1023.5,13.1667 1023.5,13.5C 1022.83,13.0187 1022.83,12.6853 1023.5,12.5 Z"/></g>
<g><path style="opacity:0.004" fill="#a8a9a8" d="M 1023.5,14.5 C 1023.5,14.8333 1023.5,15.1667 1023.5,15.5C 1022.83,15.0187 1022.83,14.6853 1023.5,14.5 Z"/></g>
<g><path style="opacity:0.247" fill="#bfbfbd" d="M -0.5,0.5 C -0.5,0.166667 -0.5,-0.166667 -0.5,-0.5C 25.1667,-0.5 50.8333,-0.5 76.5,-0.5C 76.5,-0.166667 76.5,0.166667 76.5,0.5C 53.1667,0.5 29.8333,0.5 6.5,0.5C 6.5,40.5 6.5,80.5 6.5,120.5C 5.83333,113.833 5.16667,107.167 4.5,100.5C 4.5,67.1667 4.5,33.8333 4.5,0.5C 2.83333,0.5 1.16667,0.5 -0.5,0.5 Z"/></g>
<g><path style="opacity:0.004" fill="#2c2b2d" d="M 350.5,211.5 C 351.833,212.167 351.833,212.167 350.5,211.5 Z"/></g>
<g><path style="opacity:0.004" fill="#2d2c2c" d="M 668.5,211.5 C 669.833,212.167 669.833,212.167 668.5,211.5 Z"/></g>
<g><path style="opacity:0.004" fill="#2d2d2c" d="M 678.5,211.5 C 679.833,212.167 679.833,212.167 678.5,211.5 Z"/></g>
<g><path style="opacity:0.004" fill="#2e2d2b" d="M 354.5,212.5 C 355.833,213.167 355.833,213.167 354.5,212.5 Z"/></g>
<g><path style="opacity:0.004" fill="#2a2a2b" d="M 665.5,212.5 C 666.833,213.167 666.833,213.167 665.5,212.5 Z"/></g>
<g><path style="opacity:0.004" fill="#2d2c2c" d="M 674.5,213.5 C 674.897,212.475 675.563,212.308 676.5,213C 675.906,213.464 675.239,213.631 674.5,213.5 Z"/></g>
<g><path style="opacity:0.149" fill="#373737" d="M 673.5,214.5 C 671.5,214.5 669.5,214.5 667.5,214.5C 668.609,213.71 669.942,213.21 671.5,213C 670.304,212.346 670.304,211.846 671.5,211.5C 672.425,212.357 673.092,213.357 673.5,214.5 Z"/></g>
<g><path style="opacity:0.004" fill="#2f2d2c" d="M 360.5,215.5 C 361.833,216.167 361.833,216.167 360.5,215.5 Z"/></g>
<g><path style="opacity:0.004" fill="#2f2d2c" d="M 681.5,216.5 C 681.897,215.475 682.563,215.308 683.5,216C 682.906,216.464 682.239,216.631 681.5,216.5 Z"/></g>
<g><path style="opacity:0.998" fill="#202020" d="M 355.5,214.5 C 357.284,214.893 358.95,215.559 360.5,216.5C 364.65,219.455 367.317,223.455 368.5,228.5C 367.504,244.658 367.17,260.991 367.5,277.5C 462.167,277.5 556.833,277.5 651.5,277.5C 654.336,277.798 654.836,277.131 653,275.5C 652.333,259.833 652.333,244.167 653,228.5C 657.358,217.905 665.191,214.072 676.5,217C 681.774,219.437 685.44,223.271 687.5,228.5C 687.333,244.17 687.5,259.837 688,275.5C 688.278,276.416 688.778,277.082 689.5,277.5C 704.672,278.167 720.005,278.833 735.5,279.5C 732.924,280.883 733.258,281.717 736.5,282C 734.431,282.324 734.098,283.158 735.5,284.5C 732.475,284.202 729.475,284.702 726.5,286C 729.102,286.935 730.602,288.768 731,291.5C 731.667,290.833 732.333,290.167 733,289.5C 731.745,293.266 733.245,295.099 737.5,295C 735.489,296.635 733.489,297.468 731.5,297.5C 729.67,300.514 728.336,303.847 727.5,307.5C 729.315,309.694 731.482,310.028 734,308.5C 734.5,309 735,309.5 735.5,310C 720.661,310.169 705.994,310.669 691.5,311.5C 689.576,311.711 689.243,312.377 690.5,313.5C 690.5,314.167 690.167,314.5 689.5,314.5C 688.883,314.389 688.383,314.056 688,313.5C 687.826,330.074 687.326,346.574 686.5,363C 687.044,363.717 687.711,364.217 688.5,364.5C 687.525,366.795 686.192,368.795 684.5,370.5C 683.646,368.066 682.646,368.233 681.5,371C 670.609,377.104 661.443,375.271 654,365.5C 652.879,349.395 652.046,333.395 651.5,317.5C 651.5,315.5 651.5,313.5 651.5,311.5C 650.167,311.5 648.833,311.5 647.5,311.5C 554.167,311.5 460.833,311.5 367.5,311.5C 367.818,327.881 367.485,344.214 366.5,360.5C 366.855,361.522 367.522,362.189 368.5,362.5C 368.34,364.153 367.674,365.486 366.5,366.5C 366.631,365.761 366.464,365.094 366,364.5C 357.663,375.776 347.663,377.443 336,369.5C 334.139,367.112 332.806,364.446 332,361.5C 331.501,355.509 331.334,349.509 331.5,343.5C 331.82,332.918 331.487,322.418 330.5,312C 315.833,311.333 301.167,311.333 286.5,312C 284.618,312.198 282.952,312.698 281.5,313.5C 266.045,317.621 257.379,327.621 255.5,343.5C 254.833,353.995 254.5,364.661 254.5,375.5C 254.522,386.726 255.189,397.726 256.5,408.5C 255.209,409.542 255.209,410.708 256.5,412C 253.456,412.359 253.122,413.026 255.5,414C 253.833,415 252.167,416 250.5,417C 252.64,417.973 254.307,419.473 255.5,421.5C 254.624,422.251 253.624,422.751 252.5,423C 252.254,424.06 252.254,425.227 252.5,426.5C 254.329,427.282 255.829,426.616 257,424.5C 257.167,424.833 257.333,425.167 257.5,425.5C 256.573,427.622 256.573,429.955 257.5,432.5C 255.073,432.523 252.74,433.023 250.5,434C 251.793,434.49 253.127,434.657 254.5,434.5C 254.64,436.124 253.973,437.29 252.5,438C 254.426,438.422 255.426,439.589 255.5,441.5C 254.336,541.097 254.169,640.763 255,740.5C 255.847,742.854 256.68,745.188 257.5,747.5C 258.529,749.517 259.529,751.517 260.5,753.5C 259.841,756.408 259.007,756.742 258,754.5C 257.308,755.025 256.808,755.692 256.5,756.5C 259.732,762.699 258.732,763.699 253.5,759.5C 252.914,759.709 252.414,760.043 252,760.5C 251.333,759.167 250.333,758.167 249,757.5C 247.663,759.004 245.996,760.004 244,760.5C 243.333,759.833 242.667,759.167 242,758.5C 240.481,763.078 238.481,763.411 236,759.5C 235,759.833 234,760.167 233,760.5C 225.061,758.148 222.895,753.648 226.5,747C 225.256,746.544 224.423,747.044 224,748.5C 222.956,747.377 222.29,746.044 222,744.5C 221.601,744.728 221.435,745.062 221.5,745.5C 221.167,745.5 220.833,745.5 220.5,745.5C 219.527,676.846 219.194,608.179 219.5,539.5C 220.33,530.676 220.83,521.676 221,512.5C 221.654,513.696 222.154,513.696 222.5,512.5C 221.226,508.015 220.559,503.348 220.5,498.5C 221.028,448.67 221.028,398.67 220.5,348.5C 221.62,312.408 239.287,289.075 273.5,278.5C 292.476,277.717 311.476,277.217 330.5,277C 331.036,260.174 331.869,243.341 333,226.5C 338.3,217.773 346.134,214.273 356.5,216C 355.944,215.617 355.611,215.117 355.5,214.5 Z"/></g>
<g><path style="opacity:0.004" fill="#2d2d2c" d="M 685.5,216.5 C 686.833,217.167 686.833,217.167 685.5,216.5 Z"/></g>
<g><path style="opacity:0.004" fill="#2f2e2c" d="M 656.5,218.5 C 655.833,217.167 655.833,217.167 656.5,218.5 Z"/></g>
<g><path style="opacity:0.004" fill="#302f2f" d="M 683.5,217.5 C 684.833,218.167 684.833,218.167 683.5,217.5 Z"/></g>
<g><path style="opacity:0.004" fill="#2e2e2c" d="M 647.5,223.5 C 648.525,223.897 648.692,224.563 648,225.5C 647.536,224.906 647.369,224.239 647.5,223.5 Z"/></g>
<g><path style="opacity:0.008" fill="#2d2e2d" d="M 650.5,223.5 C 651.833,224.167 651.833,224.167 650.5,223.5 Z"/></g>
<g><path style="opacity:0.994" fill="#141414" d="M 667.5,214.5 C 669.5,214.5 671.5,214.5 673.5,214.5C 676.327,214.584 678.994,215.25 681.5,216.5C 681.833,217.5 682.5,218.167 683.5,218.5C 685.959,221.087 687.626,224.087 688.5,227.5C 687.833,227.5 687.5,227.833 687.5,228.5C 685.44,223.271 681.774,219.437 676.5,217C 665.191,214.072 657.358,217.905 653,228.5C 652.333,244.167 652.333,259.833 653,275.5C 654.836,277.131 654.336,277.798 651.5,277.5C 651.83,261.658 651.496,245.991 650.5,230.5C 651.442,225.948 653.442,221.948 656.5,218.5C 659.864,216.317 663.53,214.984 667.5,214.5 Z"/></g>
<g><path style="opacity:0.008" fill="#2e2f30" d="M 327.5,224.5 C 328.833,225.167 328.833,225.167 327.5,224.5 Z"/></g>
<g><path style="opacity:0.004" fill="#2e2d2d" d="M 647.5,227.5 C 647.897,226.475 648.563,226.308 649.5,227C 648.906,227.464 648.239,227.631 647.5,227.5 Z"/></g>
<g><path style="opacity:0.004" fill="#333232" d="M 327.5,234.5 C 328.833,235.167 328.833,235.167 327.5,234.5 Z"/></g>
<g><path style="opacity:0.004" fill="#333333" d="M 327.5,237.5 C 328.833,238.167 328.833,238.167 327.5,237.5 Z"/></g>
<g><path style="opacity:0.004" fill="#333532" d="M 327.5,242.5 C 328.833,243.167 328.833,243.167 327.5,242.5 Z"/></g>
<g><path style="opacity:0.004" fill="#313033" d="M 327.5,245.5 C 328.525,245.897 328.692,246.563 328,247.5C 327.536,246.906 327.369,246.239 327.5,245.5 Z"/></g>
<g><path style="opacity:0.004" fill="#2f2e2d" d="M 691.5,246.5 C 692.833,247.167 692.833,247.167 691.5,246.5 Z"/></g>
<g><path style="opacity:0.004" fill="#313333" d="M 327.5,248.5 C 328.833,249.167 328.833,249.167 327.5,248.5 Z"/></g>
<g><path style="opacity:0.004" fill="#2c2c2b" d="M 691.5,248.5 C 692.833,249.167 692.833,249.167 691.5,248.5 Z"/></g>
<g><path style="opacity:0.004" fill="#2f2e2e" d="M 691.5,261.5 C 692.525,261.897 692.692,262.563 692,263.5C 691.536,262.906 691.369,262.239 691.5,261.5 Z"/></g>
<g><path style="opacity:0.004" fill="#323533" d="M 694.5,271.5 C 695.833,272.167 695.833,272.167 694.5,271.5 Z"/></g>
<g><path style="opacity:0.016" fill="#494748" d="M 329.5,271.5 C 329.5,272.167 329.5,272.833 329.5,273.5C 328.167,273.833 328.167,274.167 329.5,274.5C 329.158,275.338 328.492,275.672 327.5,275.5C 327.157,273.517 327.824,272.183 329.5,271.5 Z"/></g>
<g><path style="opacity:0.004" fill="#32322f" d="M 741.5,273.5 C 742.833,274.167 742.833,274.167 741.5,273.5 Z"/></g>
<g><path style="opacity:0.004" fill="#313130" d="M 271.5,275.5 C 271.897,274.475 272.563,274.308 273.5,275C 272.906,275.464 272.239,275.631 271.5,275.5 Z"/></g>
<g><path style="opacity:0.004" fill="#353432" d="M 745.5,274.5 C 746.833,275.167 746.833,275.167 745.5,274.5 Z"/></g>
<g><path style="opacity:0.006" fill="#302f2e" d="M 751.5,274.5 C 752.525,274.897 752.692,275.563 752,276.5C 751.536,275.906 751.369,275.239 751.5,274.5 Z"/></g>
<g><path style="opacity:0.004" fill="#30302f" d="M 268.5,275.5 C 269.833,276.167 269.833,276.167 268.5,275.5 Z"/></g>
<g><path style="opacity:0.983" fill="#070707" d="M 355.5,214.5 C 355.611,215.117 355.944,215.617 356.5,216C 346.134,214.273 338.3,217.773 333,226.5C 331.869,243.341 331.036,260.174 330.5,277C 311.476,277.217 292.476,277.717 273.5,278.5C 273.754,277.668 274.754,277.001 276.5,276.5C 293.325,275.503 310.325,275.17 327.5,275.5C 328.492,275.672 329.158,275.338 329.5,274.5C 329.5,274.167 329.5,273.833 329.5,273.5C 329.5,272.833 329.5,272.167 329.5,271.5C 329.793,267.563 329.46,263.73 328.5,260C 329.055,248.505 329.888,237.005 331,225.5C 336.51,215.996 344.677,212.329 355.5,214.5 Z"/></g>
<g><path style="opacity:0.985" fill="#050505" d="M 368.5,228.5 C 369.496,243.991 369.83,259.658 369.5,275.5C 462.14,275.189 554.807,275.189 647.5,275.5C 648.5,275.5 649.5,275.5 650.5,275.5C 650.5,260.833 650.5,246.167 650.5,231.5C 650.5,231.167 650.5,230.833 650.5,230.5C 651.496,245.991 651.83,261.658 651.5,277.5C 556.833,277.5 462.167,277.5 367.5,277.5C 367.17,260.991 367.504,244.658 368.5,228.5 Z"/></g>
<g><path style="opacity:0.004" fill="#353434" d="M 524.5,272.5 C 525.833,273.167 525.833,273.167 524.5,272.5 Z"/></g>
<g><path style="opacity:0.004" fill="#343332" d="M 647.5,267.5 C 648.598,268.601 648.765,269.934 648,271.5C 647.51,270.207 647.343,268.873 647.5,267.5 Z"/></g>
<g><path style="opacity:0.004" fill="#333232" d="M 647.5,264.5 C 648.833,265.167 648.833,265.167 647.5,264.5 Z"/></g>
<g><path style="opacity:0.004" fill="#2e2f2d" d="M 370.5,264.5 C 371.833,265.167 371.833,265.167 370.5,264.5 Z"/></g>
<g><path style="opacity:0.004" fill="#333333" d="M 647.5,262.5 C 648.833,263.167 648.833,263.167 647.5,262.5 Z"/></g>
<g><path style="opacity:0.004" fill="#312f2d" d="M 370.5,260.5 C 371.833,261.167 371.833,261.167 370.5,260.5 Z"/></g>
<g><path style="opacity:0.008" fill="#333233" d="M 647.5,259.5 C 648.833,260.167 648.833,260.167 647.5,259.5 Z"/></g>
<g><path style="opacity:0.008" fill="#2f3030" d="M 647.5,256.5 C 648.833,257.167 648.833,257.167 647.5,256.5 Z"/></g>
<g><path style="opacity:0.004" fill="#323432" d="M 647.5,254.5 C 648.833,255.167 648.833,255.167 647.5,254.5 Z"/></g>
<g><path style="opacity:0.135" fill="#444343" d="M 650.5,231.5 C 650.5,246.167 650.5,260.833 650.5,275.5C 649.5,275.5 648.5,275.5 647.5,275.5C 649.133,260.9 650.133,246.233 650.5,231.5 Z"/></g>
<g><path style="opacity:0.004" fill="#333533" d="M 647.5,250.5 C 648.833,251.167 648.833,251.167 647.5,250.5 Z"/></g>
<g><path style="opacity:0.008" fill="#313131" d="M 647.5,248.5 C 648.833,249.167 648.833,249.167 647.5,248.5 Z"/></g>
<g><path style="opacity:0.01" fill="#313131" d="M 647.5,239.5 C 648.634,241.966 648.801,244.633 648,247.5C 647.503,244.854 647.336,242.187 647.5,239.5 Z"/></g>
<g><path style="opacity:0.004" fill="#313030" d="M 647.5,232.5 C 648.613,233.946 648.78,235.613 648,237.5C 647.506,235.866 647.34,234.199 647.5,232.5 Z"/></g>
<g><path style="opacity:0.984" fill="#121111" d="M 688.5,227.5 C 689.29,228.609 689.79,229.942 690,231.5C 690.333,246.167 690.667,260.833 691,275.5C 709.042,275.449 727.209,275.449 745.5,275.5C 745.5,276.167 745.833,276.5 746.5,276.5C 727.674,277.497 708.674,277.83 689.5,277.5C 688.778,277.082 688.278,276.416 688,275.5C 687.5,259.837 687.333,244.17 687.5,228.5C 687.5,227.833 687.833,227.5 688.5,227.5 Z"/></g>
<g><path style="opacity:0.998" fill="#202120" d="M 746.5,276.5 C 751.955,277.106 756.955,278.773 761.5,281.5C 759.621,281.393 759.288,281.893 760.5,283C 784.327,293.509 798.494,311.676 803,337.5C 803.667,472.5 803.667,607.5 803,742.5C 799.105,768.055 785.605,786.555 762.5,798C 763.094,798.464 763.761,798.631 764.5,798.5C 763.486,799.674 762.153,800.34 760.5,800.5C 759.903,799.861 759.07,799.528 758,799.5C 752.925,801.06 747.758,802.227 742.5,803C 593.5,803.5 444.5,803.667 295.5,803.5C 259.557,804.363 235.39,788.03 223,754.5C 222.304,751.522 221.804,748.522 221.5,745.5C 221.435,745.062 221.601,744.728 222,744.5C 222.29,746.044 222.956,747.377 224,748.5C 224.423,747.044 225.256,746.544 226.5,747C 222.895,753.648 225.061,758.148 233,760.5C 234,760.167 235,759.833 236,759.5C 238.481,763.411 240.481,763.078 242,758.5C 242.667,759.167 243.333,759.833 244,760.5C 245.996,760.004 247.663,759.004 249,757.5C 250.333,758.167 251.333,759.167 252,760.5C 252.414,760.043 252.914,759.709 253.5,759.5C 258.732,763.699 259.732,762.699 256.5,756.5C 256.808,755.692 257.308,755.025 258,754.5C 259.007,756.742 259.841,756.408 260.5,753.5C 266.184,760.839 273.517,765.839 282.5,768.5C 433.806,769.662 585.139,769.829 736.5,769C 738.608,768.64 740.608,767.973 742.5,767C 741.552,766.517 740.552,766.351 739.5,766.5C 741.214,765.262 743.214,764.595 745.5,764.5C 746.251,765.573 747.251,765.74 748.5,765C 758.012,759.788 764.012,751.955 766.5,741.5C 767.268,740.737 767.768,739.737 768,738.5C 768.5,639.834 768.667,541.167 768.5,442.5C 597.528,441.504 426.528,441.171 255.5,441.5C 255.426,439.589 254.426,438.422 252.5,438C 253.973,437.29 254.64,436.124 254.5,434.5C 253.127,434.657 251.793,434.49 250.5,434C 252.74,433.023 255.073,432.523 257.5,432.5C 256.573,429.955 256.573,427.622 257.5,425.5C 257.333,425.167 257.167,424.833 257,424.5C 255.829,426.616 254.329,427.282 252.5,426.5C 252.254,425.227 252.254,424.06 252.5,423C 253.624,422.751 254.624,422.251 255.5,421.5C 254.307,419.473 252.64,417.973 250.5,417C 252.167,416 253.833,415 255.5,414C 253.122,413.026 253.456,412.359 256.5,412C 255.209,410.708 255.209,409.542 256.5,408.5C 426.834,408.667 597.167,408.5 767.5,408C 768.66,386.573 768.826,365.073 768,343.5C 767.248,338.076 765.415,333.076 762.5,328.5C 756.941,320.721 749.608,315.388 740.5,312.5C 724.195,311.56 707.862,311.227 691.5,311.5C 705.994,310.669 720.661,310.169 735.5,310C 735,309.5 734.5,309 734,308.5C 731.482,310.028 729.315,309.694 727.5,307.5C 728.336,303.847 729.67,300.514 731.5,297.5C 733.489,297.468 735.489,296.635 737.5,295C 733.245,295.099 731.745,293.266 733,289.5C 732.333,290.167 731.667,290.833 731,291.5C 730.602,288.768 729.102,286.935 726.5,286C 729.475,284.702 732.475,284.202 735.5,284.5C 734.098,283.158 734.431,282.324 736.5,282C 733.258,281.717 732.924,280.883 735.5,279.5C 720.005,278.833 704.672,278.167 689.5,277.5C 708.674,277.83 727.674,277.497 746.5,276.5 Z"/></g>
<g><path style="opacity:0.004" fill="#31302f" d="M 260.5,280.5 C 259.761,280.631 259.094,280.464 258.5,280C 259.437,279.308 260.103,279.475 260.5,280.5 Z"/></g>
<g><path style="opacity:0.008" fill="#2f312f" d="M 762.5,279.5 C 763.833,280.167 763.833,280.167 762.5,279.5 Z"/></g>
<g><path style="opacity:0.004" fill="#313331" d="M 255.5,280.5 C 256.833,281.167 256.833,281.167 255.5,280.5 Z"/></g>
<g><path style="opacity:0.994" fill="#121212" d="M 276.5,276.5 C 274.754,277.001 273.754,277.668 273.5,278.5C 239.287,289.075 221.62,312.408 220.5,348.5C 220.167,348.5 219.833,348.5 219.5,348.5C 219.795,346.265 219.461,344.265 218.5,342.5C 218.5,341.833 218.5,341.167 218.5,340.5C 219.275,329.511 222.275,319.177 227.5,309.5C 229.522,307.469 231.189,305.135 232.5,302.5C 240.698,292.881 250.032,285.548 260.5,280.5C 265.683,278.55 271.017,277.216 276.5,276.5 Z"/></g>
<g><path style="opacity:0.004" fill="#322f2e" d="M 776.5,287.5 C 777.833,288.167 777.833,288.167 776.5,287.5 Z"/></g>
<g><path style="opacity:0.004" fill="#30302f" d="M 241.5,290.5 C 242.833,291.167 242.833,291.167 241.5,290.5 Z"/></g>
<g><path style="opacity:0.004" fill="#30312f" d="M 786.5,295.5 C 787.833,296.167 787.833,296.167 786.5,295.5 Z"/></g>
<g><path style="opacity:0.004" fill="#303130" d="M 231.5,298.5 C 232.833,299.167 232.833,299.167 231.5,298.5 Z"/></g>
<g><path style="opacity:0.006" fill="#323030" d="M 790.5,302.5 C 790.369,301.761 790.536,301.094 791,300.5C 791.692,301.437 791.525,302.103 790.5,302.5 Z"/></g>
<g><path style="opacity:0.004" fill="#303432" d="M 232.5,302.5 C 231.833,301.167 231.833,301.167 232.5,302.5 Z"/></g>
<g><path style="opacity:0.004" fill="#2e2e2d" d="M 229.5,303.5 C 230.833,304.167 230.833,304.167 229.5,303.5 Z"/></g>
<g><path style="opacity:0.006" fill="#2f2f2e" d="M 229.5,304.5 C 229.103,305.525 228.437,305.692 227.5,305C 228.094,304.536 228.761,304.369 229.5,304.5 Z"/></g>
<g><path style="opacity:0.004" fill="#2e312f" d="M 224.5,306.5 C 225.833,307.167 225.833,307.167 224.5,306.5 Z"/></g>
<g><path style="opacity:0.004" fill="#30312e" d="M 227.5,306.5 C 228.833,307.167 228.833,307.167 227.5,306.5 Z"/></g>
<g><path style="opacity:0.008" fill="#2e3131" d="M 227.5,309.5 C 226.833,308.167 226.833,308.167 227.5,309.5 Z"/></g>
<g><path style="opacity:0.983" fill="#0f0f0f" d="M 647.5,311.5 C 554.833,312.167 462.167,312.833 369.5,313.5C 369.818,329.911 369.484,346.244 368.5,362.5C 367.522,362.189 366.855,361.522 366.5,360.5C 367.485,344.214 367.818,327.881 367.5,311.5C 460.833,311.5 554.167,311.5 647.5,311.5 Z"/></g>
<g><path style="opacity:0.991" fill="#0d0d0d" d="M 647.5,311.5 C 648.833,311.5 650.167,311.5 651.5,311.5C 651.5,313.5 651.5,315.5 651.5,317.5C 651.829,332.01 651.496,346.343 650.5,360.5C 649.682,344.907 649.182,329.241 649,313.5C 646.413,313.659 643.913,313.659 641.5,313.5C 552.5,313.5 463.5,313.5 374.5,313.5C 372.833,313.5 371.167,313.5 369.5,313.5C 462.167,312.833 554.833,312.167 647.5,311.5 Z"/></g>
<g><path style="opacity:0.991" fill="#161616" d="M 691.5,311.5 C 707.862,311.227 724.195,311.56 740.5,312.5C 737.713,313.477 734.713,313.81 731.5,313.5C 718.202,314.827 704.535,314.827 690.5,313.5C 689.243,312.377 689.576,311.711 691.5,311.5 Z"/></g>
<g><path style="opacity:0.008" fill="#313132" d="M 223.5,312.5 C 224.525,312.897 224.692,313.563 224,314.5C 223.536,313.906 223.369,313.239 223.5,312.5 Z"/></g>
<g><path style="opacity:0.025" fill="#464544" d="M 374.5,313.5 C 463.5,313.5 552.5,313.5 641.5,313.5C 552.638,315.487 463.638,315.487 374.5,313.5 Z"/></g>
<g><path style="opacity:0.012" fill="#31312e" d="M 798.5,314.5 C 798.369,313.761 798.536,313.094 799,312.5C 799.692,313.437 799.525,314.103 798.5,314.5 Z"/></g>
<g><path style="opacity:0.958" fill="#151515" d="M 331.5,343.5 C 330.833,347.833 330.167,352.167 329.5,356.5C 329.241,342.766 329.074,328.432 329,313.5C 316.028,314.698 302.861,314.698 289.5,313.5C 286.833,313.5 284.167,313.5 281.5,313.5C 282.952,312.698 284.618,312.198 286.5,312C 301.167,311.333 315.833,311.333 330.5,312C 331.487,322.418 331.82,332.918 331.5,343.5 Z"/></g>
<g><path style="opacity:0.988" fill="#1b1b1b" d="M 740.5,312.5 C 749.608,315.388 756.941,320.721 762.5,328.5C 761.662,328.842 761.328,329.508 761.5,330.5C 756.193,322.96 749.526,317.793 741.5,315C 737.975,314.821 734.641,314.321 731.5,313.5C 734.713,313.81 737.713,313.477 740.5,312.5 Z"/></g>
<g><path style="opacity:0.959" fill="#161616" d="M 689.5,314.5 C 690.073,322.067 690.407,329.901 690.5,338C 690.688,346.932 690.021,355.765 688.5,364.5C 687.711,364.217 687.044,363.717 686.5,363C 687.326,346.574 687.826,330.074 688,313.5C 688.383,314.056 688.883,314.389 689.5,314.5 Z"/></g>
<g><path style="opacity:0.004" fill="#302f2f" d="M 220.5,320.5 C 221.833,321.167 221.833,321.167 220.5,320.5 Z"/></g>
<g><path style="opacity:0.004" fill="#2e2d2d" d="M 801.5,320.5 C 802.833,321.167 802.833,321.167 801.5,320.5 Z"/></g>
<g><path style="opacity:0.992" fill="#141414" d="M 651.5,317.5 C 652.046,333.395 652.879,349.395 654,365.5C 661.443,375.271 670.609,377.104 681.5,371C 682.646,368.233 683.646,368.066 684.5,370.5C 678.649,376.095 671.649,377.928 663.5,376C 661.593,374.878 659.593,374.045 657.5,373.5C 653.853,369.858 651.52,365.525 650.5,360.5C 651.496,346.343 651.829,332.01 651.5,317.5 Z"/></g>
<g><path style="opacity:0.012" fill="#2f2f2e" d="M 804.5,327.5 C 805.833,328.167 805.833,328.167 804.5,327.5 Z"/></g>
<g><path style="opacity:0.984" fill="#181818" d="M 281.5,313.5 C 284.167,313.5 286.833,313.5 289.5,313.5C 267.909,316.768 256.909,329.435 256.5,351.5C 256.167,351.5 255.833,351.5 255.5,351.5C 255.5,348.833 255.5,346.167 255.5,343.5C 257.379,327.621 266.045,317.621 281.5,313.5 Z"/></g>
<g><path style="opacity:0.008" fill="#31302f" d="M 216.5,335.5 C 217.833,336.167 217.833,336.167 216.5,335.5 Z"/></g>
<g><path style="opacity:0.008" fill="#2f3130" d="M 806.5,337.5 C 807.833,338.167 807.833,338.167 806.5,337.5 Z"/></g>
<g><path style="opacity:0.004" fill="#323231" d="M 215.5,338.5 C 216.833,339.167 216.833,339.167 215.5,338.5 Z"/></g>
<g><path style="opacity:0.008" fill="#303130" d="M 806.5,341.5 C 807.833,342.167 807.833,342.167 806.5,341.5 Z"/></g>
<g><path style="opacity:0.999" fill="#010101" d="M 218.5,342.5 C 219.461,344.265 219.795,346.265 219.5,348.5C 219.5,412.167 219.5,475.833 219.5,539.5C 219.194,608.179 219.527,676.846 220.5,745.5C 220.737,746.791 220.404,747.791 219.5,748.5C 218.701,745.57 218.368,742.57 218.5,739.5C 218.5,607.167 218.5,474.833 218.5,342.5 Z"/></g>
<g><path style="opacity:0.991" fill="#030303" d="M 805.5,343.5 C 806.019,346.535 806.353,349.535 806.5,352.5C 805.167,352.833 805.167,353.167 806.5,353.5C 806.697,358.332 806.364,362.999 805.5,367.5C 805.5,489.5 805.5,611.5 805.5,733.5C 806.116,734.798 806.116,735.798 805.5,736.5C 804.167,605.5 804.167,474.5 805.5,343.5 Z"/></g>
<g><path style="opacity:0.005" fill="#333232" d="M 215.5,344.5 C 216.598,345.601 216.765,346.934 216,348.5C 215.51,347.207 215.343,345.873 215.5,344.5 Z"/></g>
<g><path style="opacity:0.004" fill="#313131" d="M 215.5,351.5 C 216.573,352.251 216.74,353.251 216,354.5C 215.517,353.552 215.351,352.552 215.5,351.5 Z"/></g>
<g><path style="opacity:0.004" fill="#303230" d="M 806.5,352.5 C 807.833,353.167 807.833,353.167 806.5,352.5 Z"/></g>
<g><path style="opacity:0.012" fill="#2f3030" d="M 215.5,360.5 C 216.833,361.167 216.833,361.167 215.5,360.5 Z"/></g>
<g><path style="opacity:0.006" fill="#303030" d="M 215.5,362.5 C 216.647,366.646 216.814,370.98 216,375.5C 215.501,371.179 215.334,366.846 215.5,362.5 Z"/></g>
<g><path style="opacity:0.007" fill="#30302f" d="M 215.5,376.5 C 216.647,380.646 216.814,384.98 216,389.5C 215.501,385.179 215.334,380.846 215.5,376.5 Z"/></g>
<g><path style="opacity:0.009" fill="#303030" d="M 215.5,398.5 C 216.638,401.304 216.805,404.304 216,407.5C 215.502,404.518 215.335,401.518 215.5,398.5 Z"/></g>
<g><path style="opacity:0.97" fill="#181818" d="M 762.5,328.5 C 765.415,333.076 767.248,338.076 768,343.5C 768.826,365.073 768.66,386.573 767.5,408C 597.167,408.5 426.834,408.667 256.5,408.5C 255.189,397.726 254.522,386.726 254.5,375.5C 254.5,364.661 254.833,353.995 255.5,343.5C 255.5,346.167 255.5,348.833 255.5,351.5C 254.846,370.197 255.513,388.53 257.5,406.5C 304.351,405.781 351.685,405.781 399.5,406.5C 401.833,406.5 404.167,406.5 406.5,406.5C 527.577,405.705 647.577,405.705 766.5,406.5C 766.667,386.497 766.5,366.497 766,346.5C 765.608,340.828 764.108,335.495 761.5,330.5C 761.328,329.508 761.662,328.842 762.5,328.5 Z"/></g>
<g><path style="opacity:0.025" fill="#4b4b4b" d="M 406.5,406.5 C 404.167,406.5 401.833,406.5 399.5,406.5C 399.369,405.624 399.702,404.957 400.5,404.5C 402.657,405.05 404.657,405.717 406.5,406.5 Z"/></g>
<g><path style="opacity:0.595" fill="#1f2020" d="M 255.5,351.5 C 255.833,351.5 256.167,351.5 256.5,351.5C 256.18,369.91 256.514,388.243 257.5,406.5C 255.513,388.53 254.846,370.197 255.5,351.5 Z"/></g>
<g><path style="opacity:0.004" fill="#323233" d="M 657.5,373.5 C 657.483,375.028 656.816,375.528 655.5,375C 656.044,374.283 656.711,373.783 657.5,373.5 Z"/></g>
<g><path style="opacity:0.995" fill="#121212" d="M 331.5,343.5 C 331.334,349.509 331.501,355.509 332,361.5C 332.806,364.446 334.139,367.112 336,369.5C 347.663,377.443 357.663,375.776 366,364.5C 366.464,365.094 366.631,365.761 366.5,366.5C 361.379,375.384 353.712,378.551 343.5,376C 334.372,372.705 329.705,366.205 329.5,356.5C 330.167,352.167 330.833,347.833 331.5,343.5 Z"/></g>
<g><path style="opacity:0.026" fill="#454544" d="M 805.5,367.5 C 806.289,367.783 806.956,368.283 807.5,369C 806.714,475.095 806.714,581.761 807.5,689C 806.841,703.931 806.174,718.765 805.5,733.5C 805.5,611.5 805.5,489.5 805.5,367.5 Z"/></g>
<g><path style="opacity:0.01" fill="#313030" d="M 215.5,408.5 C 216.622,410.288 216.789,412.288 216,414.5C 215.505,412.527 215.338,410.527 215.5,408.5 Z"/></g>
<g><path style="opacity:0.008" fill="#2f3030" d="M 215.5,415.5 C 216.598,416.601 216.765,417.934 216,419.5C 215.51,418.207 215.343,416.873 215.5,415.5 Z"/></g>
<g><path style="opacity:0.004" fill="#2f302f" d="M 215.5,420.5 C 216.833,421.167 216.833,421.167 215.5,420.5 Z"/></g>
<g><path style="opacity:0.989" fill="#1c1c1c" d="M 219.5,348.5 C 219.833,348.5 220.167,348.5 220.5,348.5C 221.028,398.67 221.028,448.67 220.5,498.5C 220.559,503.348 221.226,508.015 222.5,512.5C 222.154,513.696 221.654,513.696 221,512.5C 220.83,521.676 220.33,530.676 219.5,539.5C 219.5,475.833 219.5,412.167 219.5,348.5 Z"/></g>
<g><path style="opacity:0.243" fill="#383938" d="M 218.5,340.5 C 218.5,341.167 218.5,341.833 218.5,342.5C 218.5,474.833 218.5,607.167 218.5,739.5C 217.673,734.349 217.173,729.016 217,723.5C 215.982,724.706 215.482,724.373 215.5,722.5C 215.737,719.937 216.237,719.937 217,722.5C 217.877,705.718 217.544,689.051 216,672.5C 216.906,675.121 217.406,674.954 217.5,672C 217.406,669.046 216.906,668.879 216,671.5C 215.333,668.833 215.333,666.167 216,663.5C 216.333,665.167 216.667,666.833 217,668.5C 217.167,654 217.333,639.5 217.5,625C 217.453,609.433 216.787,593.933 215.5,578.5C 215.667,577.5 215.833,576.5 216,575.5C 216.333,577.167 216.667,578.833 217,580.5C 217.167,577.667 217.333,574.833 217.5,572C 216.964,567.491 216.298,563.324 215.5,559.5C 215.667,556.833 215.833,554.167 216,551.5C 216.333,555.167 216.667,558.833 217,562.5C 217.667,520.5 217.667,478.5 217,436.5C 216.667,437.5 216.333,438.5 216,439.5C 215.333,434.5 215.333,429.5 216,424.5C 216.333,427.833 216.667,431.167 217,434.5C 217.667,421.5 217.667,408.5 217,395.5C 216.667,396.167 216.333,396.833 216,397.5C 215.333,395.167 215.333,392.833 216,390.5C 216.333,391.833 216.667,393.167 217,394.5C 217.168,376.329 217.668,358.329 218.5,340.5 Z"/></g>
<g><path style="opacity:0.01" fill="#323030" d="M 215.5,440.5 C 216.629,442.628 216.796,444.961 216,447.5C 215.503,445.19 215.337,442.857 215.5,440.5 Z"/></g>
<g><path style="opacity:0.998" fill="#0a0a0a" d="M 255.5,441.5 C 426.528,441.171 597.528,441.504 768.5,442.5C 768.667,541.167 768.5,639.834 768,738.5C 767.768,739.737 767.268,740.737 766.5,741.5C 766.672,740.508 766.338,739.842 765.5,739.5C 766.021,735.519 766.354,731.519 766.5,727.5C 767.833,632.833 767.833,538.167 766.5,443.5C 596.333,443.167 426.333,443.5 256.5,444.5C 256.333,541.501 256.5,638.501 257,735.5C 257.502,738.513 258.002,741.513 258.5,744.5C 258.737,745.791 258.404,746.791 257.5,747.5C 256.68,745.188 255.847,742.854 255,740.5C 254.169,640.763 254.336,541.097 255.5,441.5 Z M 474.5,445.5 C 476.628,444.371 478.961,444.204 481.5,445C 479.942,445.21 478.609,445.71 477.5,446.5C 476.609,445.89 475.609,445.557 474.5,445.5 Z M 684.5,446.5 C 684.082,445.778 683.416,445.278 682.5,445C 683.833,444.333 685.167,444.333 686.5,445C 685.956,445.717 685.289,446.217 684.5,446.5 Z"/></g>
<g><path style="opacity:0.114" fill="#3c3c3b" d="M 256.5,444.5 C 426.333,443.5 596.333,443.167 766.5,443.5C 766.5,443.833 766.5,444.167 766.5,444.5C 753.496,444.333 740.496,444.5 727.5,445C 729.167,445.333 730.833,445.667 732.5,446C 730.236,446.236 728.069,446.736 726,447.5C 725.383,446.551 725.549,445.718 726.5,445C 716.167,444.333 705.833,444.333 695.5,445C 698.167,445.333 700.833,445.667 703.5,446C 703,446.5 702.5,447 702,447.5C 696.007,446.601 690.174,446.267 684.5,446.5C 671.687,446.421 658.354,446.754 644.5,447.5C 643.5,447 642.5,446.5 641.5,446C 645.833,445.667 650.167,445.333 654.5,445C 645.167,444.333 635.833,444.333 626.5,445C 628.833,445.333 631.167,445.667 633.5,446C 631,446.167 628.5,446.333 626,446.5C 615.887,444.773 605.72,444.273 595.5,445C 602.167,445.333 608.833,445.667 615.5,446C 611.579,446.203 607.745,446.703 604,447.5C 598.711,447.411 593.378,447.411 588,447.5C 585.931,446.736 583.764,446.236 581.5,446C 585.833,445.667 590.167,445.333 594.5,445C 589.5,444.333 584.5,444.333 579.5,445C 580.711,445.893 580.711,446.726 579.5,447.5C 575.106,447.931 570.44,447.431 565.5,446C 568.063,445.237 568.063,444.737 565.5,444.5C 564.833,444.667 564.167,444.833 563.5,445C 564.451,445.718 564.617,446.551 564,447.5C 562.601,446.773 561.101,446.273 559.5,446C 560.167,445.667 560.833,445.333 561.5,445C 551.5,444.333 541.5,444.333 531.5,445C 534.5,445.333 537.5,445.667 540.5,446C 539.234,446.309 538.067,446.809 537,447.5C 531.546,446.718 526.046,446.218 520.5,446C 523.833,445.667 527.167,445.333 530.5,445C 516.167,444.333 501.833,444.333 487.5,445C 489.256,445.202 490.922,445.702 492.5,446.5C 492.333,446.833 492.167,447.167 492,447.5C 487.263,446.531 482.43,446.197 477.5,446.5C 478.609,445.71 479.942,445.21 481.5,445C 478.961,444.204 476.628,444.371 474.5,445.5C 472.218,444.61 469.885,444.444 467.5,445C 468.938,445.219 470.271,445.719 471.5,446.5C 471.333,446.833 471.167,447.167 471,447.5C 468.197,446.643 465.197,446.643 462,447.5C 461.833,447.167 461.667,446.833 461.5,446.5C 465.286,445.271 465.286,444.604 461.5,444.5C 460.5,444.667 459.5,444.833 458.5,445C 459.956,445.423 460.456,446.256 460,447.5C 457.765,446.761 455.765,446.761 454,447.5C 453.544,446.256 454.044,445.423 455.5,445C 448.833,444.333 442.167,444.333 435.5,445C 436.833,445.333 438.167,445.667 439.5,446C 439.167,446.333 438.833,446.667 438.5,447C 436.491,446.406 434.491,446.573 432.5,447.5C 431.396,446.369 431.729,445.535 433.5,445C 428.167,444.333 422.833,444.333 417.5,445C 421.211,445.175 424.878,445.675 428.5,446.5C 428.333,446.833 428.167,447.167 428,447.5C 419.927,447.081 413.927,446.081 410,444.5C 407.833,444.667 405.667,444.833 403.5,445C 404.96,445.811 405.293,446.645 404.5,447.5C 398.804,444.758 392.804,443.924 386.5,445C 389.833,445.333 393.167,445.667 396.5,446C 391.351,447.287 386.351,447.287 381.5,446C 382.833,445.667 384.167,445.333 385.5,445C 380.833,444.333 376.167,444.333 371.5,445C 374.5,445.333 377.5,445.667 380.5,446C 375.582,446.195 370.749,446.695 366,447.5C 365.833,447.167 365.667,446.833 365.5,446.5C 366.376,445.749 367.376,445.249 368.5,445C 350.5,444.333 332.5,444.333 314.5,445C 315.167,445.333 315.833,445.667 316.5,446C 314.167,446.667 311.833,446.667 309.5,446C 310.833,445.667 312.167,445.333 313.5,445C 294.503,444.5 275.503,444.333 256.5,444.5 Z M 474.5,445.5 C 476.628,444.371 478.961,444.204 481.5,445C 479.942,445.21 478.609,445.71 477.5,446.5C 476.609,445.89 475.609,445.557 474.5,445.5 Z M 684.5,446.5 C 685.289,446.217 685.956,445.717 686.5,445C 685.167,444.333 683.833,444.333 682.5,445C 683.416,445.278 684.082,445.778 684.5,446.5 Z"/></g>
<g><path style="opacity:0.01" fill="#373636" d="M 290.5,446.5 C 291.077,445.227 291.743,445.227 292.5,446.5C 292.03,447.463 291.363,447.463 290.5,446.5 Z"/></g>
<g><path style="opacity:0.009" fill="#373636" d="M 305.5,446.5 C 306.386,445.224 307.386,445.224 308.5,446.5C 307.767,447.087 306.767,447.087 305.5,446.5 Z"/></g>
<g><path style="opacity:0.01" fill="#373736" d="M 335.5,446.5 C 342.321,445.345 349.321,445.179 356.5,446C 356,446.5 355.5,447 355,447.5C 348.578,446.754 342.078,446.421 335.5,446.5 Z"/></g>
<g><path style="opacity:0.008" fill="#373636" d="M 493.5,446.5 C 498.985,445.348 504.651,445.182 510.5,446C 509.584,446.374 508.75,446.874 508,447.5C 503.257,447.709 498.424,447.376 493.5,446.5 Z"/></g>
<g><path style="opacity:0.01" fill="#383736" d="M 517.5,445.5 C 520.001,445.511 520.168,446.178 518,447.5C 517.536,446.906 517.369,446.239 517.5,445.5 Z"/></g>
<g><path style="opacity:0.007" fill="#373635" d="M 737.5,446.5 C 738.386,445.224 739.386,445.224 740.5,446.5C 739.767,447.087 738.767,447.087 737.5,446.5 Z"/></g>
<g><path style="opacity:0.009" fill="#353435" d="M 762.5,446.5 C 763.077,445.227 763.743,445.227 764.5,446.5C 764.03,447.463 763.363,447.463 762.5,446.5 Z"/></g>
<g><path style="opacity:0.004" fill="#383736" d="M 549.5,445.5 C 551.975,445.747 551.975,446.413 549.5,447.5C 548.537,447.03 548.537,446.363 549.5,445.5 Z"/></g>
<g><path style="opacity:0.01" fill="#313131" d="M 215.5,448.5 C 216.613,449.946 216.78,451.613 216,453.5C 215.506,451.866 215.34,450.199 215.5,448.5 Z"/></g>
<g><path style="opacity:0.008" fill="#323030" d="M 215.5,456.5 C 216.598,457.601 216.765,458.934 216,460.5C 215.51,459.207 215.343,457.873 215.5,456.5 Z"/></g>
<g><path style="opacity:0.004" fill="#2f3030" d="M 215.5,461.5 C 216.833,462.167 216.833,462.167 215.5,461.5 Z"/></g>
<g><path style="opacity:0.007" fill="#313030" d="M 215.5,463.5 C 216.651,468.65 216.817,473.984 216,479.5C 215.501,474.177 215.334,468.844 215.5,463.5 Z"/></g>
<g><path style="opacity:0.006" fill="#343434" d="M 385.5,512.5 C 385.158,513.338 384.492,513.672 383.5,513.5C 382.496,511.323 383.162,510.989 385.5,512.5 Z"/></g>
<g><path style="opacity:0.998" fill="#212121" d="M 406.5,512.5 C 408.153,512.66 409.486,513.326 410.5,514.5C 409.448,514.351 408.448,514.517 407.5,515C 417.709,523.112 420.209,533.279 415,545.5C 405.541,557.651 394.375,559.485 381.5,551C 373.21,541.141 372.377,530.641 379,519.5C 386.91,512.212 395.91,510.546 406,514.5C 406.464,513.906 406.631,513.239 406.5,512.5 Z"/></g>
<g><path style="opacity:0.998" fill="#212121" d="M 637.5,555.5 C 635.786,556.738 633.786,557.405 631.5,557.5C 610.556,556.725 602.056,546.058 606,525.5C 611.962,513.829 621.462,509.662 634.5,513C 645.783,519.22 649.95,528.72 647,541.5C 644.925,547.91 640.758,552.41 634.5,555C 635.448,555.483 636.448,555.649 637.5,555.5 Z"/></g>
<g><path style="opacity:0.995" fill="#101010" d="M 761.5,281.5 C 773.112,285.807 782.779,292.807 790.5,302.5C 793.18,306.537 795.846,310.537 798.5,314.5C 799.264,317.018 800.264,319.351 801.5,321.5C 803.989,328.613 805.322,335.946 805.5,343.5C 804.167,474.5 804.167,605.5 805.5,736.5C 805.054,746.95 802.721,756.95 798.5,766.5C 797.662,766.842 797.328,767.508 797.5,768.5C 796.662,768.842 796.328,769.508 796.5,770.5C 790.542,779.458 783.209,787.125 774.5,793.5C 771.45,795.692 768.117,797.358 764.5,798.5C 763.761,798.631 763.094,798.464 762.5,798C 785.605,786.555 799.105,768.055 803,742.5C 803.667,607.5 803.667,472.5 803,337.5C 798.494,311.676 784.327,293.509 760.5,283C 759.288,281.893 759.621,281.393 761.5,281.5 Z"/></g>
<g><path style="opacity:0.008" fill="#313030" d="M 215.5,480.5 C 216.663,501.329 216.829,522.329 216,543.5C 215.5,522.503 215.333,501.503 215.5,480.5 Z"/></g>
<g><path style="opacity:0.994" fill="#141414" d="M 637.5,555.5 C 636.448,555.649 635.448,555.483 634.5,555C 640.758,552.41 644.925,547.91 647,541.5C 649.95,528.72 645.783,519.22 634.5,513C 621.462,509.662 611.962,513.829 606,525.5C 602.056,546.058 610.556,556.725 631.5,557.5C 628.167,557.5 624.833,557.5 621.5,557.5C 612.053,556.054 606.053,550.72 603.5,541.5C 603.768,539.901 603.434,538.568 602.5,537.5C 601.348,527.294 605.015,519.128 613.5,513C 634.04,505.54 646.373,512.54 650.5,534C 650.103,543.64 645.77,550.807 637.5,555.5 Z"/></g>
<g><path style="opacity:0.987" fill="#151515" d="M 486.5,536.5 C 486.5,535.167 486.5,533.833 486.5,532.5C 487.933,518.097 495.933,510.43 510.5,509.5C 525.001,511 532.667,519 533.5,533.5C 532.201,551.492 522.535,559.658 504.5,558C 493.969,555.257 487.969,548.09 486.5,536.5 Z"/></g>
<g><path style="opacity:0.998" fill="#222221" d="M 503.5,512.5 C 523.467,510.634 532.634,519.634 531,539.5C 527.499,550.345 519.999,556.012 508.5,556.5C 493.383,553.289 486.883,543.955 489,528.5C 490.181,524.637 492.014,521.137 494.5,518C 497.596,516.128 500.596,514.295 503.5,512.5 Z"/></g>
<g><path style="opacity:0.004" fill="#343334" d="M 600.5,529.5 C 601.713,530.497 601.546,531.497 600,532.5C 599.53,531.423 599.697,530.423 600.5,529.5 Z"/></g>
<g><path style="opacity:0.047" fill="#434241" d="M 486.5,532.5 C 486.5,533.833 486.5,535.167 486.5,536.5C 482.918,535.542 482.918,534.209 486.5,532.5 Z"/></g>
<g><path style="opacity:0.024" fill="#434342" d="M 372.5,531.5 C 372.5,533.167 372.5,534.833 372.5,536.5C 371.766,535.122 371.099,533.622 370.5,532C 371.094,531.536 371.761,531.369 372.5,531.5 Z"/></g>
<g><path style="opacity:0.012" fill="#383838" d="M 602.5,537.5 C 603.434,538.568 603.768,539.901 603.5,541.5C 602.778,541.918 602.278,542.584 602,543.5C 601.82,541.512 601.986,539.512 602.5,537.5 Z"/></g>
<g><path style="opacity:0.008" fill="#313030" d="M 215.5,544.5 C 216.622,546.288 216.789,548.288 216,550.5C 215.505,548.527 215.338,546.527 215.5,544.5 Z"/></g>
<g><path style="opacity:0.995" fill="#151515" d="M 406.5,512.5 C 406.631,513.239 406.464,513.906 406,514.5C 395.91,510.546 386.91,512.212 379,519.5C 372.377,530.641 373.21,541.141 381.5,551C 394.375,559.485 405.541,557.651 415,545.5C 420.209,533.279 417.709,523.112 407.5,515C 408.448,514.517 409.448,514.351 410.5,514.5C 421.342,524.899 422.842,536.565 415,549.5C 405.856,559.035 395.356,560.868 383.5,555C 376.885,550.605 373.218,544.438 372.5,536.5C 372.5,534.833 372.5,533.167 372.5,531.5C 373.13,523.56 376.797,517.56 383.5,513.5C 384.492,513.672 385.158,513.338 385.5,512.5C 392.512,508.503 399.512,508.503 406.5,512.5 Z"/></g>
<g><path style="opacity:0.11" fill="#3b3b3a" d="M 621.5,557.5 C 624.833,557.5 628.167,557.5 631.5,557.5C 628.437,558.201 625.27,558.868 622,559.5C 621.536,558.906 621.369,558.239 621.5,557.5 Z"/></g>
<g><path style="opacity:0.008" fill="#323130" d="M 215.5,568.5 C 216.613,569.946 216.78,571.613 216,573.5C 215.506,571.866 215.34,570.199 215.5,568.5 Z"/></g>
<g><path style="opacity:0.985" fill="#151515" d="M 418.5,625.5 C 421.753,635.475 420.086,644.475 413.5,652.5C 412.761,652.631 412.094,652.464 411.5,652C 418.832,642.181 419.332,632.015 413,621.5C 401.667,610.833 390.333,610.833 379,621.5C 370.419,637.079 373.919,648.913 389.5,657C 396.847,658.415 403.68,657.249 410,653.5C 410.765,653.57 411.265,653.903 411.5,654.5C 399.134,662.754 387.634,661.421 377,650.5C 369.511,638.563 370.677,627.396 380.5,617C 395.902,608.045 408.569,610.879 418.5,625.5 Z"/></g>
<g><path style="opacity:0.998" fill="#212121" d="M 413.5,652.5 C 413.167,653.5 412.5,654.167 411.5,654.5C 411.265,653.903 410.765,653.57 410,653.5C 403.68,657.249 396.847,658.415 389.5,657C 373.919,648.913 370.419,637.079 379,621.5C 390.333,610.833 401.667,610.833 413,621.5C 419.332,632.015 418.832,642.181 411.5,652C 412.094,652.464 412.761,652.631 413.5,652.5 Z"/></g>
<g><path style="opacity:0.998" fill="#212121" d="M 532.5,643.5 C 532.34,645.153 531.674,646.486 530.5,647.5C 530.631,646.761 530.464,646.094 530,645.5C 521.811,657.889 510.978,660.723 497.5,654C 487.326,644.451 485.826,633.618 493,621.5C 500.653,614.465 509.486,612.631 519.5,616C 529.312,621.796 532.979,630.296 530.5,641.5C 530.855,642.522 531.522,643.189 532.5,643.5 Z"/></g>
<g><path style="opacity:0.986" fill="#0f0f0f" d="M 622.5,612.5 C 624.857,612.337 627.19,612.503 629.5,613C 621.32,613.341 614.486,616.508 609,622.5C 608.536,621.906 608.369,621.239 608.5,620.5C 611.947,615.774 616.614,613.108 622.5,612.5 Z"/></g>
<g><path style="opacity:0.998" fill="#212121" d="M 622.5,612.5 C 626.29,611.098 629.956,611.431 633.5,613.5C 632.448,613.351 631.448,613.517 630.5,614C 644.331,618.531 649.831,628.031 647,642.5C 645.998,646.164 644.164,649.331 641.5,652C 642.094,652.464 642.761,652.631 643.5,652.5C 643.167,653.5 642.5,654.167 641.5,654.5C 641.265,653.903 640.765,653.57 640,653.5C 630.399,658.967 620.899,658.8 611.5,653C 603.824,644.264 602.491,634.597 607.5,624C 607.43,623.235 607.097,622.735 606.5,622.5C 606.833,621.5 607.5,620.833 608.5,620.5C 608.369,621.239 608.536,621.906 609,622.5C 614.486,616.508 621.32,613.341 629.5,613C 627.19,612.503 624.857,612.337 622.5,612.5 Z"/></g>
<g><path style="opacity:0.008" fill="#313030" d="M 215.5,583.5 C 216.661,598.661 216.828,613.994 216,629.5C 215.5,614.17 215.333,598.837 215.5,583.5 Z"/></g>
<g><path style="opacity:0.986" fill="#131313" d="M 532.5,643.5 C 531.522,643.189 530.855,642.522 530.5,641.5C 532.979,630.296 529.312,621.796 519.5,616C 509.486,612.631 500.653,614.465 493,621.5C 485.826,633.618 487.326,644.451 497.5,654C 510.978,660.723 521.811,657.889 530,645.5C 530.464,646.094 530.631,646.761 530.5,647.5C 521.82,660.539 510.487,663.373 496.5,656C 486.469,647.774 483.802,637.607 488.5,625.5C 489.167,625.5 489.5,625.167 489.5,624.5C 493.519,616.057 500.352,611.723 510,611.5C 528.205,614.55 535.705,625.217 532.5,643.5 Z"/></g>
<g><path style="opacity:0.01" fill="#343333" d="M 418.5,625.5 C 418.517,623.972 419.184,623.472 420.5,624C 419.956,624.717 419.289,625.217 418.5,625.5 Z"/></g>
<g><path style="opacity:0.31" fill="#353636" d="M 489.5,624.5 C 489.5,625.167 489.167,625.5 488.5,625.5C 487.427,624.749 487.26,623.749 488,622.5C 488.278,623.416 488.778,624.082 489.5,624.5 Z"/></g>
<g><path style="opacity:0.014" fill="#313030" d="M 215.5,630.5 C 216.622,632.288 216.789,634.288 216,636.5C 215.505,634.527 215.338,632.527 215.5,630.5 Z"/></g>
<g><path style="opacity:0.994" fill="#151515" d="M 633.5,613.5 C 641.41,615.576 646.577,620.576 649,628.5C 651.421,637.577 649.587,645.577 643.5,652.5C 642.761,652.631 642.094,652.464 641.5,652C 644.164,649.331 645.998,646.164 647,642.5C 649.831,628.031 644.331,618.531 630.5,614C 631.448,613.517 632.448,613.351 633.5,613.5 Z"/></g>
<g><path style="opacity:0.004" fill="#343232" d="M 602.5,642.5 C 602.728,644.355 602.061,645.188 600.5,645C 601.066,644.005 601.733,643.172 602.5,642.5 Z"/></g>
<g><path style="opacity:0.005" fill="#303030" d="M 215.5,637.5 C 216.641,640.64 216.808,643.973 216,647.5C 215.502,644.183 215.335,640.85 215.5,637.5 Z"/></g>
<g><path style="opacity:0.005" fill="#323232" d="M 215.5,650.5 C 216.598,651.601 216.765,652.934 216,654.5C 215.51,653.207 215.343,651.873 215.5,650.5 Z"/></g>
<g><path style="opacity:0.995" fill="#151414" d="M 606.5,622.5 C 607.097,622.735 607.43,623.235 607.5,624C 602.491,634.597 603.824,644.264 611.5,653C 620.899,658.8 630.399,658.967 640,653.5C 640.765,653.57 641.265,653.903 641.5,654.5C 629.401,662.605 618.235,661.938 608,652.5C 605.87,649.233 604.037,645.9 602.5,642.5C 601.556,635.262 602.89,628.595 606.5,622.5 Z"/></g>
<g><path style="opacity:0.02" fill="#313130" d="M 215.5,655.5 C 216.622,657.288 216.789,659.288 216,661.5C 215.505,659.527 215.338,657.527 215.5,655.5 Z"/></g>
<g><path style="opacity:0.703" fill="#1a1b1b" d="M 766.5,443.5 C 767.833,538.167 767.833,632.833 766.5,727.5C 766.492,632.989 766.492,538.656 766.5,444.5C 766.5,444.167 766.5,443.833 766.5,443.5 Z"/></g>
<g><path style="opacity:0.01" fill="#323131" d="M 215.5,678.5 C 216.629,680.628 216.796,682.961 216,685.5C 215.503,683.19 215.337,680.857 215.5,678.5 Z"/></g>
<g><path style="opacity:0.016" fill="#303130" d="M 215.5,686.5 C 216.629,688.628 216.796,690.961 216,693.5C 215.503,691.19 215.337,688.857 215.5,686.5 Z"/></g>
<g><path style="opacity:0.004" fill="#303030" d="M 215.5,694.5 C 216.833,695.167 216.833,695.167 215.5,694.5 Z"/></g>
<g><path style="opacity:0.004" fill="#323130" d="M 215.5,696.5 C 216.629,698.628 216.796,700.961 216,703.5C 215.503,701.19 215.337,698.857 215.5,696.5 Z"/></g>
<g><path style="opacity:0.004" fill="#313030" d="M 215.5,704.5 C 216.629,706.628 216.796,708.961 216,711.5C 215.503,709.19 215.337,706.857 215.5,704.5 Z"/></g>
<g><path style="opacity:0.292" fill="#afaead" d="M 4.5,100.5 C 5.16667,107.167 5.83333,113.833 6.5,120.5C 6.5,421.167 6.5,721.833 6.5,1022.5C 345.5,1022.5 684.5,1022.5 1023.5,1022.5C 1023.5,1022.83 1023.5,1023.17 1023.5,1023.5C 682.167,1023.5 340.833,1023.5 -0.5,1023.5C -0.5,1022.83 -0.5,1022.17 -0.5,1021.5C 1.04181,1022.3 2.70848,1022.63 4.5,1022.5C 4.5,715.167 4.5,407.833 4.5,100.5 Z"/></g>
<g><path style="opacity:0.012" fill="#313030" d="M 215.5,712.5 C 216.629,714.628 216.796,716.961 216,719.5C 215.503,717.19 215.337,714.857 215.5,712.5 Z"/></g>
<g><path style="opacity:0.008" fill="#313030" d="M 215.5,726.5 C 216.622,728.288 216.789,730.288 216,732.5C 215.505,730.527 215.338,728.527 215.5,726.5 Z"/></g>
<g><path style="opacity:0.004" fill="#303030" d="M 215.5,736.5 C 216.833,737.167 216.833,737.167 215.5,736.5 Z"/></g>
<g><path style="opacity:0.008" fill="#2e302e" d="M 806.5,738.5 C 807.833,739.167 807.833,739.167 806.5,738.5 Z"/></g>
<g><path style="opacity:0.004" fill="#2f312d" d="M 806.5,741.5 C 807.833,742.167 807.833,742.167 806.5,741.5 Z"/></g>
<g><path style="opacity:0.004" fill="#323230" d="M 216.5,743.5 C 217.833,744.167 217.833,744.167 216.5,743.5 Z"/></g>
<g><path style="opacity:0.998" fill="#131312" d="M 765.5,739.5 C 766.338,739.842 766.672,740.508 766.5,741.5C 764.012,751.955 758.012,759.788 748.5,765C 747.251,765.74 746.251,765.573 745.5,764.5C 755.725,759.07 762.391,750.737 765.5,739.5 Z"/></g>
<g><path style="opacity:0.004" fill="#313031" d="M 217.5,747.5 C 218.525,747.897 218.692,748.563 218,749.5C 217.536,748.906 217.369,748.239 217.5,747.5 Z"/></g>
<g><path style="opacity:0.008" fill="#31302e" d="M 215.5,753.5 C 216.833,754.167 216.833,754.167 215.5,753.5 Z"/></g>
<g><path style="opacity:0.006" fill="#30322f" d="M 219.5,756.5 C 220.525,756.897 220.692,757.563 220,758.5C 219.536,757.906 219.369,757.239 219.5,756.5 Z"/></g>
<g><path style="opacity:0.982" fill="#161515" d="M 258.5,744.5 C 264.311,756.972 273.977,764.639 287.5,767.5C 285.585,767.216 283.919,767.549 282.5,768.5C 273.517,765.839 266.184,760.839 260.5,753.5C 259.529,751.517 258.529,749.517 257.5,747.5C 258.404,746.791 258.737,745.791 258.5,744.5 Z"/></g>
<g><path style="opacity:0.01" fill="#2f2d2e" d="M 798.5,766.5 C 799.833,767.167 799.833,767.833 798.5,768.5C 798.5,767.833 798.5,767.167 798.5,766.5 Z"/></g>
<g><path style="opacity:0.008" fill="#313230" d="M 224.5,768.5 C 223.475,768.103 223.308,767.437 224,766.5C 224.464,767.094 224.631,767.761 224.5,768.5 Z"/></g>
<g><path style="opacity:1" fill="#171717" d="M 739.5,766.5 C 740.552,766.351 741.552,766.517 742.5,767C 740.608,767.973 738.608,768.64 736.5,769C 585.139,769.829 433.806,769.662 282.5,768.5C 283.919,767.549 285.585,767.216 287.5,767.5C 438.188,767.827 588.855,767.494 739.5,766.5 Z"/></g>
<g><path style="opacity:0.008" fill="#2f312e" d="M 224.5,768.5 C 225.167,768.5 225.5,768.833 225.5,769.5C 225.167,769.167 224.833,768.833 224.5,768.5 Z"/></g>
<g><path style="opacity:0.004" fill="#2e2f2f" d="M 797.5,768.5 C 797.833,768.5 798.167,768.5 798.5,768.5C 798.315,769.17 797.981,769.17 797.5,768.5 Z"/></g>
<g><path style="opacity:0.005" fill="#302e2f" d="M 225.5,769.5 C 225.833,769.5 226.167,769.5 226.5,769.5C 226.5,770.167 226.833,770.5 227.5,770.5C 227.5,771.167 227.5,771.833 227.5,772.5C 226.094,772.027 225.427,771.027 225.5,769.5 Z"/></g>
<g><path style="opacity:0.996" fill="#131313" d="M 220.5,745.5 C 220.833,745.5 221.167,745.5 221.5,745.5C 221.804,748.522 222.304,751.522 223,754.5C 235.39,788.03 259.557,804.363 295.5,803.5C 296.5,804.167 297.5,804.833 298.5,805.5C 297.833,805.5 297.167,805.5 296.5,805.5C 295.833,805.5 295.5,805.833 295.5,806.5C 295.167,806.5 294.833,806.5 294.5,806.5C 294.167,805.167 293.833,805.167 293.5,806.5C 286.19,805.681 278.856,805.014 271.5,804.5C 266.576,802.52 261.576,800.52 256.5,798.5C 254.337,796.917 252.004,795.584 249.5,794.5C 248.055,792.937 246.389,791.604 244.5,790.5C 241.84,788.216 238.84,785.55 235.5,782.5C 235.672,781.508 235.338,780.842 234.5,780.5C 234.5,779.833 234.167,779.5 233.5,779.5C 233.167,778.167 232.833,778.167 232.5,779.5C 231.226,778.811 231.226,777.977 232.5,777C 230.93,775.603 229.596,774.103 228.5,772.5C 228.672,771.508 228.338,770.842 227.5,770.5C 226.833,770.5 226.5,770.167 226.5,769.5C 223.314,762.793 220.981,755.793 219.5,748.5C 220.404,747.791 220.737,746.791 220.5,745.5 Z"/></g>
<g><path style="opacity:0.012" fill="#302e2d" d="M 796.5,770.5 C 797.833,771.167 797.833,771.167 796.5,770.5 Z"/></g>
<g><path style="opacity:0.004" fill="#302e2e" d="M 227.5,772.5 C 227.833,772.5 228.167,772.5 228.5,772.5C 228.167,775.167 227.833,775.167 227.5,772.5 Z"/></g>
<g><path style="opacity:0.004" fill="#31302e" d="M 795.5,772.5 C 796.833,773.167 796.833,773.167 795.5,772.5 Z"/></g>
<g><path style="opacity:0.004" fill="#2d2e2d" d="M 796.5,774.5 C 797.833,775.167 797.833,775.167 796.5,774.5 Z"/></g>
<g><path style="opacity:0.014" fill="#31302f" d="M 232.5,779.5 C 232.833,779.5 233.167,779.5 233.5,779.5C 234.167,779.5 234.5,779.833 234.5,780.5C 233.012,783.186 232.345,782.853 232.5,779.5 Z"/></g>
<g><path style="opacity:0.004" fill="#302f2f" d="M 235.5,782.5 C 234.833,783.167 234.833,783.167 235.5,782.5 Z"/></g>
<g><path style="opacity:0.008" fill="#323230" d="M 244.5,790.5 C 243.833,791.167 243.833,791.167 244.5,790.5 Z"/></g>
<g><path style="opacity:0.008" fill="#313330" d="M 774.5,793.5 C 775.833,794.167 775.833,794.167 774.5,793.5 Z"/></g>
<g><path style="opacity:0.016" fill="#31332f" d="M 249.5,794.5 C 248.833,795.167 248.833,795.167 249.5,794.5 Z"/></g>
<g><path style="opacity:0.008" fill="#2f302f" d="M 247.5,796.5 C 248.833,797.167 248.833,797.167 247.5,796.5 Z"/></g>
<g><path style="opacity:0.004" fill="#2d302e" d="M 256.5,798.5 C 255.833,799.167 255.833,799.167 256.5,798.5 Z"/></g>
<g><path style="opacity:0.004" fill="#2e2e2c" d="M 767.5,798.5 C 768.833,799.167 768.833,799.167 767.5,798.5 Z"/></g>
<g><path style="opacity:0.004" fill="#2f2f2e" d="M 771.5,798.5 C 772.833,799.167 772.833,799.167 771.5,798.5 Z"/></g>
<g><path style="opacity:0.008" fill="#2e312e" d="M 758.5,802.5 C 759.833,803.167 759.833,803.167 758.5,802.5 Z"/></g>
<g><path style="opacity:0.004" fill="#30302e" d="M 264.5,804.5 C 265.833,805.167 265.833,805.167 264.5,804.5 Z"/></g>
<g><path style="opacity:0.004" fill="#302f2d" d="M 271.5,804.5 C 271.5,804.833 271.5,805.167 271.5,805.5C 270.83,805.019 270.83,804.685 271.5,804.5 Z"/></g>
<g><path style="opacity:0.953" fill="#070707" d="M 760.5,800.5 C 751.625,804.474 742.292,806.141 732.5,805.5C 731.833,805.5 731.167,805.5 730.5,805.5C 729.5,805.5 728.5,805.5 727.5,805.5C 723.167,805.5 718.833,805.5 714.5,805.5C 713.5,805.5 712.5,805.5 711.5,805.5C 706.833,805.5 702.167,805.5 697.5,805.5C 697.167,805.5 696.833,805.5 696.5,805.5C 695.833,805.5 695.167,805.5 694.5,805.5C 694.167,805.5 693.833,805.5 693.5,805.5C 692.833,805.5 692.167,805.5 691.5,805.5C 691.167,805.5 690.833,805.5 690.5,805.5C 687.833,805.5 685.167,805.5 682.5,805.5C 681.833,805.5 681.167,805.5 680.5,805.5C 675.833,805.5 671.167,805.5 666.5,805.5C 666.167,805.5 665.833,805.5 665.5,805.5C 657.5,805.5 649.5,805.5 641.5,805.5C 641.167,805.5 640.833,805.5 640.5,805.5C 611.5,805.5 582.5,805.5 553.5,805.5C 553.167,805.5 552.833,805.5 552.5,805.5C 549.5,805.5 546.5,805.5 543.5,805.5C 542.5,805.5 541.5,805.5 540.5,805.5C 529.167,805.5 517.833,805.5 506.5,805.5C 505.833,805.5 505.167,805.5 504.5,805.5C 486.167,805.5 467.833,805.5 449.5,805.5C 449.167,805.5 448.833,805.5 448.5,805.5C 435.833,805.5 423.167,805.5 410.5,805.5C 409.5,805.5 408.5,805.5 407.5,805.5C 381.833,805.5 356.167,805.5 330.5,805.5C 330.167,805.5 329.833,805.5 329.5,805.5C 326.833,805.5 324.167,805.5 321.5,805.5C 321.167,805.5 320.833,805.5 320.5,805.5C 318.5,805.5 316.5,805.5 314.5,805.5C 314.167,805.5 313.833,805.5 313.5,805.5C 308.5,805.5 303.5,805.5 298.5,805.5C 297.5,804.833 296.5,804.167 295.5,803.5C 444.5,803.667 593.5,803.5 742.5,803C 747.758,802.227 752.925,801.06 758,799.5C 759.07,799.528 759.903,799.861 760.5,800.5 Z"/></g>
<g><path style="opacity:0.007" fill="#32302f" d="M 271.5,805.5 C 273.415,805.216 275.081,805.549 276.5,806.5C 274.856,806.286 273.356,806.62 272,807.5C 271.536,806.906 271.369,806.239 271.5,805.5 Z"/></g>
<g><path style="opacity:0.021" fill="#3f3d3c" d="M 296.5,806.5 C 296.5,806.167 296.5,805.833 296.5,805.5C 297.167,805.5 297.833,805.5 298.5,805.5C 303.5,805.5 308.5,805.5 313.5,805.5C 313.217,806.289 312.717,806.956 312,807.5C 307.122,807.328 301.955,806.994 296.5,806.5 Z"/></g>
<g><path style="opacity:0.013" fill="#3f3e3c" d="M 314.5,805.5 C 316.5,805.5 318.5,805.5 320.5,805.5C 320.5,805.833 320.5,806.167 320.5,806.5C 318.045,808.138 316.045,807.805 314.5,805.5 Z"/></g>
<g><path style="opacity:0.014" fill="#3f3d3d" d="M 321.5,806.5 C 321.5,806.167 321.5,805.833 321.5,805.5C 324.167,805.5 326.833,805.5 329.5,805.5C 327.098,807.514 324.432,807.847 321.5,806.5 Z"/></g>
<g><path style="opacity:0.021" fill="#3d3c3b" d="M 330.5,805.5 C 356.167,805.5 381.833,805.5 407.5,805.5C 407.38,806.586 406.713,807.253 405.5,807.5C 381.514,806.819 357.181,806.819 332.5,807.5C 331.478,807.145 330.811,806.478 330.5,805.5 Z"/></g>
<g><path style="opacity:0.023" fill="#3f3d3c" d="M 410.5,805.5 C 423.167,805.5 435.833,805.5 448.5,805.5C 447.359,806.339 446.026,807.006 444.5,807.5C 433.459,806.93 422.959,806.93 413,807.5C 411.699,807.361 410.866,806.695 410.5,805.5 Z"/></g>
<g><path style="opacity:0.019" fill="#3d3c3c" d="M 449.5,805.5 C 467.833,805.5 486.167,805.5 504.5,805.5C 504.038,806.88 503.038,807.547 501.5,807.5C 485.446,807.446 468.946,807.446 452,807.5C 450.624,807.316 449.791,806.649 449.5,805.5 Z"/></g>
<g><path style="opacity:0.01" fill="#3d3c3b" d="M 506.5,805.5 C 517.833,805.5 529.167,805.5 540.5,805.5C 541.5,806.833 542.5,806.833 543.5,805.5C 546.5,805.5 549.5,805.5 552.5,805.5C 552.038,806.88 551.038,807.547 549.5,807.5C 535.949,806.534 522.449,806.534 509,807.5C 507.699,807.361 506.866,806.695 506.5,805.5 Z"/></g>
<g><path style="opacity:0.02" fill="#3d3c3b" d="M 553.5,805.5 C 582.5,805.5 611.5,805.5 640.5,805.5C 639.469,806.249 638.302,806.915 637,807.5C 610.965,807.017 584.298,807.017 557,807.5C 555.698,806.915 554.531,806.249 553.5,805.5 Z"/></g>
<g><path style="opacity:0.012" fill="#3d3c3b" d="M 641.5,805.5 C 649.5,805.5 657.5,805.5 665.5,805.5C 664.866,806.947 663.699,807.613 662,807.5C 656.932,806.878 651.265,806.878 645,807.5C 643.541,807.192 642.374,806.525 641.5,805.5 Z"/></g>
<g><path style="opacity:0.014" fill="#3e3c3b" d="M 666.5,805.5 C 671.167,805.5 675.833,805.5 680.5,805.5C 680.038,806.88 679.038,807.547 677.5,807.5C 675.167,807.5 672.833,807.5 670.5,807.5C 668.829,807.332 667.496,806.665 666.5,805.5 Z"/></g>
<g><path style="opacity:0.015" fill="#3d3b3b" d="M 697.5,805.5 C 702.167,805.5 706.833,805.5 711.5,805.5C 712.643,807.101 711.976,807.767 709.5,807.5C 706.854,806.786 704.354,806.786 702,807.5C 700.378,806.901 698.878,806.234 697.5,805.5 Z"/></g>
<g><path style="opacity:0.016" fill="#3b3a3a" d="M 714.5,805.5 C 718.833,805.5 723.167,805.5 727.5,805.5C 727.918,806.222 728.584,806.722 729.5,807C 728.5,807.167 727.5,807.333 726.5,807.5C 722.935,807.065 719.435,807.065 716,807.5C 714.97,807.164 714.47,806.497 714.5,805.5 Z"/></g>
<g><path style="opacity:0.005" fill="#302f2f" d="M 746.5,806.5 C 747.251,805.427 748.251,805.26 749.5,806C 748.552,806.483 747.552,806.649 746.5,806.5 Z"/></g>
<g><path style="opacity:0.006" fill="#31302f" d="M 276.5,806.5 C 277.552,806.351 278.552,806.517 279.5,807C 278.251,807.74 277.251,807.573 276.5,806.5 Z"/></g>
<g><path style="opacity:0.008" fill="#323331" d="M 280.5,806.5 C 281.833,807.167 281.833,807.167 280.5,806.5 Z"/></g>
<g><path style="opacity:0.004" fill="#333130" d="M 283.5,807.5 C 284.251,806.427 285.251,806.26 286.5,807C 285.552,807.483 284.552,807.649 283.5,807.5 Z"/></g>
<g><path style="opacity:0.004" fill="#312f30" d="M 293.5,806.5 C 293.833,806.5 294.167,806.5 294.5,806.5C 294.315,807.17 293.981,807.17 293.5,806.5 Z"/></g>
<g><path style="opacity:0.004" fill="#31312f" d="M 295.5,806.5 C 295.833,806.5 296.167,806.5 296.5,806.5C 296.315,807.17 295.981,807.17 295.5,806.5 Z"/></g>
<g><path style="opacity:0.004" fill="#302d2e" d="M 320.5,806.5 C 320.833,806.5 321.167,806.5 321.5,806.5C 321.315,807.17 320.981,807.17 320.5,806.5 Z"/></g>
<g><path style="opacity:0.012" fill="#3b3938" d="M 682.5,805.5 C 685.167,805.5 687.833,805.5 690.5,805.5C 690.833,806.833 691.167,806.833 691.5,805.5C 692.167,805.5 692.833,805.5 693.5,805.5C 693.833,806.833 694.167,806.833 694.5,805.5C 695.167,805.5 695.833,805.5 696.5,805.5C 696.389,806.117 696.056,806.617 695.5,807C 691.5,807.667 687.5,807.667 683.5,807C 682.944,806.617 682.611,806.117 682.5,805.5 Z"/></g>
<g><path style="opacity:0.004" fill="#363434" d="M 730.5,805.5 C 731.167,805.5 731.833,805.5 732.5,805.5C 733.263,806.268 734.263,806.768 735.5,807C 733.326,807.877 731.659,807.377 730.5,805.5 Z"/></g>
<g><path style="opacity:0.012" fill="#2f2f2d" d="M 736.5,806.5 C 737.833,807.167 737.833,807.167 736.5,806.5 Z"/></g>
<g><path style="opacity:0.014" fill="#2f2f2e" d="M 739.5,807.5 C 740.601,806.402 741.934,806.235 743.5,807C 742.207,807.49 740.873,807.657 739.5,807.5 Z"/></g>
<g><path style="opacity:0.004" fill="#222322" d="M 307.5,933.5 C 308.833,934.167 308.833,934.167 307.5,933.5 Z"/></g>
<g><path style="opacity:0.004" fill="#aaaba9" d="M -0.5,1014.5 C 0.833333,1015.17 0.833333,1015.17 -0.5,1014.5 Z"/></g>
</svg>
