<?xml version="1.0" encoding="UTF-8"?>
<!DOCTYPE svg PUBLIC "-//W3C//DTD SVG 1.1//EN" "http://www.w3.org/Graphics/SVG/1.1/DTD/svg11.dtd">
<svg xmlns="http://www.w3.org/2000/svg" version="1.1" width="1024px" height="1024px" style="shape-rendering:geometricPrecision; text-rendering:geometricPrecision; image-rendering:optimizeQuality; fill-rule:evenodd; clip-rule:evenodd" xmlns:xlink="http://www.w3.org/1999/xlink">
<g><path style="opacity:1" fill="#fafafa" d="M -0.5,-0.5 C 340.833,-0.5 682.167,-0.5 1023.5,-0.5C 1023.5,340.833 1023.5,682.167 1023.5,1023.5C 682.167,1023.5 340.833,1023.5 -0.5,1023.5C -0.5,682.167 -0.5,340.833 -0.5,-0.5 Z"/></g>
<g><path style="opacity:1" fill="#0e0e0e" d="M 437.5,135.5 C 486.834,135.333 536.168,135.5 585.5,136C 615.901,142.774 634.735,161.274 642,191.5C 643.312,202.122 643.812,212.789 643.5,223.5C 686.501,223.333 729.501,223.5 772.5,224C 790.036,227.86 802.536,238.027 810,254.5C 811.841,259.703 813.174,265.036 814,270.5C 814.667,284.5 814.667,298.5 814,312.5C 807.316,336.687 791.483,349.687 766.5,351.5C 759.8,494.171 752.966,636.838 746,779.5C 744.713,818.624 726.546,846.458 691.5,863C 682.99,865.641 674.323,867.641 665.5,869C 562.833,869.667 460.167,869.667 357.5,869C 319.169,863.008 294.002,841.508 282,804.5C 280.683,799.9 279.683,795.234 279,790.5C 271.674,644.149 264.174,497.816 256.5,351.5C 239.194,348.93 225.361,340.597 215,326.5C 210.159,316.73 208.326,306.397 209.5,295.5C 206.848,274.77 211.681,256.103 224,239.5C 231.216,231.639 240.049,226.473 250.5,224C 293.499,223.5 336.499,223.333 379.5,223.5C 377.897,203.681 381.73,185.014 391,167.5C 402.558,150.981 418.058,140.314 437.5,135.5 Z"/></g>
<g><path style="opacity:1" fill="#fafafa" d="M 446.5,172.5 C 491.168,172.333 535.835,172.5 580.5,173C 594.51,177.012 603.01,186.178 606,200.5C 607.205,208.119 607.705,215.786 607.5,223.5C 543.833,223.5 480.167,223.5 416.5,223.5C 416.334,215.16 416.5,206.827 417,198.5C 421.508,183.68 431.341,175.014 446.5,172.5 Z"/></g>
<g><path style="opacity:1" fill="#fafafa" d="M 766.5,315.5 C 595.793,315.831 425.127,315.497 254.5,314.5C 251.242,313.079 248.742,310.746 247,307.5C 244.697,295.056 245.03,282.722 248,270.5C 249.442,266.725 251.942,263.892 255.5,262C 426.167,261.333 596.833,261.333 767.5,262C 774.042,264.553 777.542,269.387 778,276.5C 778.928,287.24 778.595,297.907 777,308.5C 776.535,309.931 775.701,311.097 774.5,312C 771.842,313.478 769.175,314.645 766.5,315.5 Z"/></g>
<g><path style="opacity:1" fill="#010202" d="M 254.5,314.5 C 425.127,315.497 595.793,315.831 766.5,315.5C 767.552,315.351 768.552,315.517 769.5,316C 768.167,316.333 766.833,316.667 765.5,317C 596.5,317.667 427.5,317.667 258.5,317C 256.081,316.71 254.747,315.876 254.5,314.5 Z"/></g>
<g><path style="opacity:1" fill="#f9f9f9" d="M 292.5,351.5 C 438.502,351.167 584.502,351.5 730.5,352.5C 723.07,496.444 716.236,640.444 710,784.5C 706.822,801.368 698.655,815.202 685.5,826C 678.609,829.742 671.276,832.075 663.5,833C 562.833,833.667 462.167,833.667 361.5,833C 340.112,829.562 325.612,817.729 318,797.5C 315.875,791.332 314.541,784.999 314,778.5C 307.332,636.135 300.165,493.802 292.5,351.5 Z"/></g>
<g><path style="opacity:1" fill="#0e0e0e" d="M 507.5,422.5 C 518.338,421.19 525.838,425.523 530,435.5C 530.954,537.844 530.62,640.177 529,742.5C 525.867,754.821 518.033,759.655 505.5,757C 498.983,754.807 495.15,750.307 494,743.5C 493.333,641.167 493.333,538.833 494,436.5C 496.713,429.956 501.213,425.289 507.5,422.5 Z"/></g>
<g><path style="opacity:1" fill="#0d0e0d" d="M 385.5,422.5 C 396.413,421.533 403.579,426.2 407,436.5C 412.813,535.967 417.98,635.467 422.5,735C 423.385,744.378 420.052,751.711 412.5,757C 399.673,761.001 390.84,756.835 386,744.5C 383.953,672.085 380.286,599.752 375,527.5C 373.313,497.176 372.313,466.843 372,436.5C 374.017,429.318 378.517,424.652 385.5,422.5 Z"/></g>
<g><path style="opacity:1" fill="#0d0d0d" d="M 631.5,422.5 C 647.736,422.573 655.069,430.739 653.5,447C 648.578,544.844 643.412,642.678 638,740.5C 636.658,751.175 630.658,757.175 620,758.5C 612.003,758.34 606.337,754.674 603,747.5C 601.4,736.239 601.067,724.906 602,713.5C 607.794,620.856 613.127,528.19 618,435.5C 620.442,428.888 624.942,424.555 631.5,422.5 Z"/></g>
</svg>
