<?xml version="1.0" encoding="UTF-8"?>
<!DOCTYPE svg PUBLIC "-//W3C//DTD SVG 1.1//EN" "http://www.w3.org/Graphics/SVG/1.1/DTD/svg11.dtd">
<svg xmlns="http://www.w3.org/2000/svg" version="1.1" width="1024px" height="1024px" style="shape-rendering:geometricPrecision; text-rendering:geometricPrecision; image-rendering:optimizeQuality; fill-rule:evenodd; clip-rule:evenodd" xmlns:xlink="http://www.w3.org/1999/xlink">
<g><path style="opacity:1" fill="#fafafa" d="M 332.5,-0.5 C 537.833,-0.5 743.167,-0.5 948.5,-0.5C 948.5,7.5 948.5,15.5 948.5,23.5C 940.167,23.5 931.833,23.5 923.5,23.5C 923.5,32.1667 923.5,40.8333 923.5,49.5C 931.833,49.5 940.167,49.5 948.5,49.5C 948.5,58.1667 948.5,66.8333 948.5,75.5C 940.167,75.5 931.833,75.5 923.5,75.5C 923.5,84.1667 923.5,92.8333 923.5,101.5C 932.192,101.169 940.859,101.502 949.5,102.5C 948.53,110.778 948.197,119.111 948.5,127.5C 940.167,127.5 931.833,127.5 923.5,127.5C 923.5,135.833 923.5,144.167 923.5,152.5C 914.833,152.5 906.167,152.5 897.5,152.5C 897.5,160.833 897.5,169.167 897.5,177.5C 888.981,177.87 880.315,177.87 871.5,177.5C 871.5,169.167 871.5,160.833 871.5,152.5C 862.833,152.5 854.167,152.5 845.5,152.5C 845.5,160.833 845.5,169.167 845.5,177.5C 840.283,177.242 835.116,177.575 830,178.5C 828.5,178 827,177.5 825.5,177C 826.308,176.692 826.975,176.192 827.5,175.5C 823.485,174.582 821.985,171.915 823,167.5C 822.333,166.167 821.667,166.167 821,167.5C 820.501,162.511 820.334,157.511 820.5,152.5C 813.132,152.536 805.799,152.036 798.5,151C 799.471,149.796 800.471,149.296 801.5,149.5C 799.995,148.158 799.328,146.492 799.5,144.5C 798.07,144.579 796.736,144.246 795.5,143.5C 794.505,138.208 794.172,132.875 794.5,127.5C 785.915,127.183 777.415,127.517 769,128.5C 768.5,119.506 768.334,110.506 768.5,101.5C 760.167,101.5 751.833,101.5 743.5,101.5C 743.666,107.509 743.499,113.509 743,119.5C 740.154,121.293 739.988,123.127 742.5,125C 735.253,125.812 728.086,125.646 721,124.5C 720.311,125.357 719.478,126.023 718.5,126.5C 717.82,119.042 717.487,110.709 717.5,101.5C 709.167,101.5 700.833,101.5 692.5,101.5C 692.5,110.167 692.5,118.833 692.5,127.5C 683.833,127.5 675.167,127.5 666.5,127.5C 666.5,118.833 666.5,110.167 666.5,101.5C 657.833,101.5 649.167,101.5 640.5,101.5C 640.5,92.8333 640.5,84.1667 640.5,75.5C 631.833,75.5 623.167,75.5 614.5,75.5C 614.5,66.8333 614.5,58.1667 614.5,49.5C 606.167,49.5 597.833,49.5 589.5,49.5C 589.156,40.4026 589.156,31.7359 589.5,23.5C 580.833,23.5 572.167,23.5 563.5,23.5C 563.5,32.1667 563.5,40.8333 563.5,49.5C 571.833,49.5 580.167,49.5 588.5,49.5C 588.5,58.1667 588.5,66.8333 588.5,75.5C 580.167,75.5 571.833,75.5 563.5,75.5C 563.5,84.1667 563.5,92.8333 563.5,101.5C 571.833,101.5 580.167,101.5 588.5,101.5C 588.5,110.167 588.5,118.833 588.5,127.5C 597.167,127.5 605.833,127.5 614.5,127.5C 614.5,135.833 614.5,144.167 614.5,152.5C 606.16,152.334 597.827,152.5 589.5,153C 588.518,161.081 588.184,169.248 588.5,177.5C 580.294,177.926 572.294,178.093 564.5,178C 563.517,169.585 563.183,161.085 563.5,152.5C 555.167,152.5 546.833,152.5 538.5,152.5C 538.5,160.833 538.5,169.167 538.5,177.5C 529.926,177.807 521.26,177.807 512.5,177.5C 512.5,169.167 512.5,160.833 512.5,152.5C 503.833,152.5 495.167,152.5 486.5,152.5C 486.5,144.167 486.5,135.833 486.5,127.5C 478.167,127.5 469.833,127.5 461.5,127.5C 461.666,119.16 461.5,110.827 461,102.5C 452.585,101.517 444.085,101.183 435.5,101.5C 435.5,110.167 435.5,118.833 435.5,127.5C 443.833,127.5 452.167,127.5 460.5,127.5C 460.5,135.833 460.5,144.167 460.5,152.5C 452.167,152.5 443.833,152.5 435.5,152.5C 435.5,160.833 435.5,169.167 435.5,177.5C 427.28,177.284 418.947,177.618 410.5,178.5C 409.502,169.859 409.169,161.192 409.5,152.5C 401.167,152.5 392.833,152.5 384.5,152.5C 384.816,144.248 384.482,136.081 383.5,128C 375.173,127.5 366.84,127.334 358.5,127.5C 358.5,118.833 358.5,110.167 358.5,101.5C 357.279,92.8248 357.279,84.1581 358.5,75.5C 366.833,75.5 375.167,75.5 383.5,75.5C 384.008,66.9769 384.008,58.3103 383.5,49.5C 375.14,49.8312 366.807,49.4979 358.5,48.5C 357.706,40.4334 357.373,32.2668 357.5,24C 349.173,23.5003 340.84,23.3336 332.5,23.5C 332.5,15.5 332.5,7.5 332.5,-0.5 Z"/></g>
<g><path style="opacity:1" fill="#f9f9f9" d="M 204.5,-0.5 C 247.167,-0.5 289.833,-0.5 332.5,-0.5C 332.5,7.5 332.5,15.5 332.5,23.5C 340.84,23.3336 349.173,23.5003 357.5,24C 357.373,32.2668 357.706,40.4334 358.5,48.5C 366.807,49.4979 375.14,49.8312 383.5,49.5C 384.008,58.3103 384.008,66.9769 383.5,75.5C 375.167,75.5 366.833,75.5 358.5,75.5C 357.279,84.1581 357.279,92.8248 358.5,101.5C 349.833,101.5 341.167,101.5 332.5,101.5C 332.5,110.167 332.5,118.833 332.5,127.5C 340.833,127.5 349.167,127.5 357.5,127.5C 357.912,136.13 357.912,144.464 357.5,152.5C 349.167,152.5 340.833,152.5 332.5,152.5C 332.831,161.192 332.498,169.859 331.5,178.5C 323.317,177.888 314.984,177.554 306.5,177.5C 306.5,169.167 306.5,160.833 306.5,152.5C 298.167,152.5 289.833,152.5 281.5,152.5C 281.5,161.167 281.5,169.833 281.5,178.5C 289.833,178.5 298.167,178.5 306.5,178.5C 306.5,186.833 306.5,195.167 306.5,203.5C 298.319,203.776 289.986,203.776 281.5,203.5C 281.5,212.167 281.5,220.833 281.5,229.5C 289.833,229.5 298.167,229.5 306.5,229.5C 306.5,238.167 306.5,246.833 306.5,255.5C 315.167,255.5 323.833,255.5 332.5,255.5C 332.5,264.167 332.5,272.833 332.5,281.5C 341.173,281.334 349.84,281.5 358.5,282C 357.739,289.511 357.739,297.677 358.5,306.5C 366.833,306.5 375.167,306.5 383.5,306.5C 383.329,314.922 383.663,323.422 384.5,332C 375.84,332.5 367.173,332.666 358.5,332.5C 357.528,340.961 357.194,349.295 357.5,357.5C 349.167,357.5 340.833,357.5 332.5,357.5C 332.5,349.167 332.5,340.833 332.5,332.5C 323.833,332.5 315.167,332.5 306.5,332.5C 306.5,323.833 306.5,315.167 306.5,306.5C 298.167,306.5 289.833,306.5 281.5,306.5C 281.5,298.167 281.5,289.833 281.5,281.5C 272.833,281.5 264.167,281.5 255.5,281.5C 255.5,272.833 255.5,264.167 255.5,255.5C 246.833,255.5 238.167,255.5 229.5,255.5C 229.5,264.167 229.5,272.833 229.5,281.5C 221.167,281.5 212.833,281.5 204.5,281.5C 204.5,272.833 204.5,264.167 204.5,255.5C 196.16,255.666 187.827,255.5 179.5,255C 178.988,246.727 178.654,238.227 178.5,229.5C 187.167,229.5 195.833,229.5 204.5,229.5C 204.5,220.833 204.5,212.167 204.5,203.5C 195.73,203.501 187.23,203.834 179,204.5C 179.251,196.05 179.084,187.383 178.5,178.5C 169.874,177.589 161.208,177.255 152.5,177.5C 152.5,169.167 152.5,160.833 152.5,152.5C 161.167,152.5 169.833,152.5 178.5,152.5C 178.776,144.014 178.776,135.681 178.5,127.5C 169.833,127.5 161.167,127.5 152.5,127.5C 152.5,118.833 152.5,110.167 152.5,101.5C 161.167,101.5 169.833,101.5 178.5,101.5C 179.092,92.6921 179.092,84.0255 178.5,75.5C 187.167,75.5 195.833,75.5 204.5,75.5C 204.5,66.8333 204.5,58.1667 204.5,49.5C 196.167,49.5 187.833,49.5 179.5,49.5C 178.249,40.8414 178.249,32.1747 179.5,23.5C 187.833,23.5 196.167,23.5 204.5,23.5C 204.5,15.5 204.5,7.5 204.5,-0.5 Z"/></g>
<g><path style="opacity:1" fill="#fbfbfb" d="M 923.5,152.5 C 923.666,160.84 923.5,169.173 923,177.5C 914.585,178.483 906.085,178.817 897.5,178.5C 898.833,195.5 898.833,212.5 897.5,229.5C 891.491,229.666 885.491,229.499 879.5,229C 880.647,227.096 880.147,225.596 878,224.5C 876.144,225.202 874.977,226.536 874.5,228.5C 847.755,202.256 821.089,175.756 794.5,149C 761.057,124.129 725.39,120.462 687.5,138C 681.221,141.946 675.221,146.279 669.5,151C 538.084,281.748 407.418,413.082 277.5,545C 268.333,551.5 260.5,559.333 254,568.5C 231.645,650.256 209.145,731.923 186.5,813.5C 187.876,826.375 195.042,833.375 208,834.5C 233.344,826.956 258.844,819.956 284.5,813.5C 286.028,813.517 286.528,814.184 286,815.5C 284.493,814.465 282.993,814.632 281.5,816C 282.641,816.741 282.641,817.575 281.5,818.5C 289.807,819.498 298.14,819.831 306.5,819.5C 306.5,828.167 306.5,836.833 306.5,845.5C 315.167,845.5 323.833,845.5 332.5,845.5C 332.5,836.833 332.5,828.167 332.5,819.5C 341.167,819.5 349.833,819.5 358.5,819.5C 358.5,828.167 358.5,836.833 358.5,845.5C 366.84,845.334 375.173,845.5 383.5,846C 384.467,850.401 384.8,854.901 384.5,859.5C 392.833,859.5 401.167,859.5 409.5,859.5C 409.5,854.833 409.5,850.167 409.5,845.5C 418.167,845.5 426.833,845.5 435.5,845.5C 435.5,836.833 435.5,828.167 435.5,819.5C 443.84,819.334 452.173,819.5 460.5,820C 461.483,828.415 461.817,836.915 461.5,845.5C 469.833,845.5 478.167,845.5 486.5,845.5C 486.5,836.833 486.5,828.167 486.5,819.5C 495.167,819.5 503.833,819.5 512.5,819.5C 512.5,828.167 512.5,836.833 512.5,845.5C 521.167,845.5 529.833,845.5 538.5,845.5C 538.5,836.833 538.5,828.167 538.5,819.5C 546.833,819.5 555.167,819.5 563.5,819.5C 563.5,828.167 563.5,836.833 563.5,845.5C 571.833,845.5 580.167,845.5 588.5,845.5C 588.334,837.16 588.5,828.827 589,820.5C 597.415,819.517 605.915,819.183 614.5,819.5C 614.5,828.167 614.5,836.833 614.5,845.5C 623.167,845.5 631.833,845.5 640.5,845.5C 640.5,853.833 640.5,862.167 640.5,870.5C 640.5,878.833 640.5,887.167 640.5,895.5C 637.145,895.909 634.145,895.242 631.5,893.5C 640.385,879.107 637.052,868.607 621.5,862C 490.5,861.333 359.5,861.333 228.5,862C 215.029,867.592 211.029,877.092 216.5,890.5C 215.814,891.848 214.814,893.015 213.5,894C 214.167,894.333 214.833,894.667 215.5,895C 211.848,895.499 208.182,895.665 204.5,895.5C 204.5,887.167 204.5,878.833 204.5,870.5C 204.5,862.167 204.5,853.833 204.5,845.5C 195.833,845.5 187.167,845.5 178.5,845.5C 178.5,836.833 178.5,828.167 178.5,819.5C 169.833,819.5 161.167,819.5 152.5,819.5C 152.5,810.833 152.5,802.167 152.5,793.5C 144.167,793.5 135.833,793.5 127.5,793.5C 127.5,784.833 127.5,776.167 127.5,767.5C 118.833,767.5 110.167,767.5 101.5,767.5C 101.5,759.167 101.5,750.833 101.5,742.5C 93.1667,742.5 84.8333,742.5 76.5,742.5C 76.5,733.833 76.5,725.167 76.5,716.5C 84.8333,716.5 93.1667,716.5 101.5,716.5C 101.5,708.167 101.5,699.833 101.5,691.5C 92.9832,691.826 84.6499,691.493 76.5,690.5C 76.5,682.167 76.5,673.833 76.5,665.5C 84.8333,665.5 93.1667,665.5 101.5,665.5C 101.5,673.833 101.5,682.167 101.5,690.5C 110.167,690.5 118.833,690.5 127.5,690.5C 127.5,682.167 127.5,673.833 127.5,665.5C 135.833,665.5 144.167,665.5 152.5,665.5C 152.334,674.173 152.5,682.84 153,691.5C 161.415,690.517 169.915,690.183 178.5,690.5C 178.951,682.114 178.951,673.78 178.5,665.5C 187.167,665.5 195.833,665.5 204.5,665.5C 204.5,656.833 204.5,648.167 204.5,639.5C 212.833,639.5 221.167,639.5 229.5,639.5C 230.112,630.774 230.445,622.608 230.5,615C 221.84,614.5 213.173,614.334 204.5,614.5C 204.5,605.833 204.5,597.167 204.5,588.5C 212.833,588.5 221.167,588.5 229.5,588.5C 229.831,579.808 229.498,571.141 228.5,562.5C 220.781,563.016 212.781,563.016 204.5,562.5C 204.5,554.167 204.5,545.833 204.5,537.5C 195.833,537.5 187.167,537.5 178.5,537.5C 178.536,545.911 178.536,554.245 178.5,562.5C 169.724,562.704 161.057,562.704 152.5,562.5C 152.666,571.173 152.5,579.84 152,588.5C 144.032,589.246 135.865,589.579 127.5,589.5C 127.5,597.833 127.5,606.167 127.5,614.5C 118.833,614.5 110.167,614.5 101.5,614.5C 101.5,605.833 101.5,597.167 101.5,588.5C 110.167,588.5 118.833,588.5 127.5,588.5C 127.5,580.167 127.5,571.833 127.5,563.5C 118.995,563.433 110.328,563.099 101.5,562.5C 101.5,554.167 101.5,545.833 101.5,537.5C 110.167,537.5 118.833,537.5 127.5,537.5C 127.5,528.833 127.5,520.167 127.5,511.5C 118.833,511.5 110.167,511.5 101.5,511.5C 101.666,503.16 101.5,494.827 101,486.5C 92.919,485.518 84.7524,485.184 76.5,485.5C 76.5,477.167 76.5,468.833 76.5,460.5C 84.8333,460.5 93.1667,460.5 101.5,460.5C 101.5,451.833 101.5,443.167 101.5,434.5C 93.1667,434.5 84.8333,434.5 76.5,434.5C 76.5,426.167 76.5,417.833 76.5,409.5C 67.8333,409.5 59.1667,409.5 50.5,409.5C 50.1546,383.692 50.1546,358.025 50.5,332.5C 59.1667,332.5 67.8333,332.5 76.5,332.5C 76.5,340.833 76.5,349.167 76.5,357.5C 84.8333,357.5 93.1667,357.5 101.5,357.5C 101.5,349.167 101.5,340.833 101.5,332.5C 110.167,332.5 118.833,332.5 127.5,332.5C 127.5,340.833 127.5,349.167 127.5,357.5C 135.833,357.5 144.167,357.5 152.5,357.5C 152.5,349.167 152.5,340.833 152.5,332.5C 161.167,332.5 169.833,332.5 178.5,332.5C 178.716,341.323 178.716,349.989 178.5,358.5C 170.16,358.334 161.827,358.5 153.5,359C 152.518,367.081 152.184,375.248 152.5,383.5C 144.167,383.5 135.833,383.5 127.5,383.5C 127.5,392.167 127.5,400.833 127.5,409.5C 135.833,409.5 144.167,409.5 152.5,409.5C 152.5,417.833 152.5,426.167 152.5,434.5C 161.167,434.5 169.833,434.5 178.5,434.5C 178.674,443.327 178.674,451.994 178.5,460.5C 187.167,460.5 195.833,460.5 204.5,460.5C 204.5,468.833 204.5,477.167 204.5,485.5C 212.84,485.334 221.173,485.5 229.5,486C 230.483,494.415 230.817,502.915 230.5,511.5C 238.833,511.5 247.167,511.5 255.5,511.5C 255.5,520.167 255.5,528.833 255.5,537.5C 260.576,536.32 265.742,536.32 271,537.5C 274.462,537.017 274.962,535.85 272.5,534C 273.549,533.508 274.549,533.674 275.5,534.5C 277.836,533.406 277.836,532.073 275.5,530.5C 276.631,529.396 277.465,529.729 278,531.5C 279.011,530.663 280.178,530.33 281.5,530.5C 280.207,524.104 280.207,517.937 281.5,512C 289.412,511.817 297.246,511.317 305,510.5C 306.438,502.277 306.938,493.943 306.5,485.5C 313.841,485.666 321.174,485.5 328.5,485C 325.809,482.508 326.309,480.675 330,479.5C 331.044,480.623 331.71,481.956 332,483.5C 332.5,475.841 332.666,468.174 332.5,460.5C 338.842,460.666 345.175,460.5 351.5,460C 350.234,459.691 349.067,459.191 348,458.5C 347,458.833 346,459.167 345,459.5C 345.311,458.065 345.145,456.732 344.5,455.5C 346.903,454.155 349.569,452.488 352.5,450.5C 351.494,449.604 351.494,448.938 352.5,448.5C 353.48,449.981 354.647,451.315 356,452.5C 355.923,453.738 356.089,454.738 356.5,455.5C 357.497,448.532 357.83,441.532 357.5,434.5C 349.167,434.5 340.833,434.5 332.5,434.5C 332.5,426.167 332.5,417.833 332.5,409.5C 341.336,409.969 350.003,409.469 358.5,408C 357.627,400.133 357.294,391.966 357.5,383.5C 349.167,383.5 340.833,383.5 332.5,383.5C 332.5,375.167 332.5,366.833 332.5,358.5C 324.018,358.124 315.684,357.958 307.5,358C 306.517,349.585 306.183,341.085 306.5,332.5C 315.167,332.5 323.833,332.5 332.5,332.5C 332.5,340.833 332.5,349.167 332.5,357.5C 340.833,357.5 349.167,357.5 357.5,357.5C 357.194,349.295 357.528,340.961 358.5,332.5C 367.173,332.666 375.84,332.5 384.5,332C 383.663,323.422 383.329,314.922 383.5,306.5C 375.167,306.5 366.833,306.5 358.5,306.5C 357.739,297.677 357.739,289.511 358.5,282C 349.84,281.5 341.173,281.334 332.5,281.5C 332.5,272.833 332.5,264.167 332.5,255.5C 323.833,255.5 315.167,255.5 306.5,255.5C 306.5,246.833 306.5,238.167 306.5,229.5C 298.167,229.5 289.833,229.5 281.5,229.5C 281.5,220.833 281.5,212.167 281.5,203.5C 289.986,203.776 298.319,203.776 306.5,203.5C 306.5,195.167 306.5,186.833 306.5,178.5C 298.167,178.5 289.833,178.5 281.5,178.5C 281.5,169.833 281.5,161.167 281.5,152.5C 289.833,152.5 298.167,152.5 306.5,152.5C 306.5,160.833 306.5,169.167 306.5,177.5C 314.984,177.554 323.317,177.888 331.5,178.5C 332.498,169.859 332.831,161.192 332.5,152.5C 340.833,152.5 349.167,152.5 357.5,152.5C 357.912,144.464 357.912,136.13 357.5,127.5C 349.167,127.5 340.833,127.5 332.5,127.5C 332.5,118.833 332.5,110.167 332.5,101.5C 341.167,101.5 349.833,101.5 358.5,101.5C 358.5,110.167 358.5,118.833 358.5,127.5C 366.84,127.334 375.173,127.5 383.5,128C 384.482,136.081 384.816,144.248 384.5,152.5C 392.833,152.5 401.167,152.5 409.5,152.5C 409.169,161.192 409.502,169.859 410.5,178.5C 418.947,177.618 427.28,177.284 435.5,177.5C 435.5,169.167 435.5,160.833 435.5,152.5C 443.833,152.5 452.167,152.5 460.5,152.5C 460.5,144.167 460.5,135.833 460.5,127.5C 452.167,127.5 443.833,127.5 435.5,127.5C 435.5,118.833 435.5,110.167 435.5,101.5C 444.085,101.183 452.585,101.517 461,102.5C 461.5,110.827 461.666,119.16 461.5,127.5C 469.833,127.5 478.167,127.5 486.5,127.5C 486.5,135.833 486.5,144.167 486.5,152.5C 495.167,152.5 503.833,152.5 512.5,152.5C 512.5,160.833 512.5,169.167 512.5,177.5C 521.26,177.807 529.926,177.807 538.5,177.5C 538.5,169.167 538.5,160.833 538.5,152.5C 546.833,152.5 555.167,152.5 563.5,152.5C 563.183,161.085 563.517,169.585 564.5,178C 572.294,178.093 580.294,177.926 588.5,177.5C 588.184,169.248 588.518,161.081 589.5,153C 597.827,152.5 606.16,152.334 614.5,152.5C 614.5,144.167 614.5,135.833 614.5,127.5C 605.833,127.5 597.167,127.5 588.5,127.5C 588.5,118.833 588.5,110.167 588.5,101.5C 580.167,101.5 571.833,101.5 563.5,101.5C 563.5,92.8333 563.5,84.1667 563.5,75.5C 571.833,75.5 580.167,75.5 588.5,75.5C 588.5,66.8333 588.5,58.1667 588.5,49.5C 580.167,49.5 571.833,49.5 563.5,49.5C 563.5,40.8333 563.5,32.1667 563.5,23.5C 572.167,23.5 580.833,23.5 589.5,23.5C 589.156,31.7359 589.156,40.4026 589.5,49.5C 597.833,49.5 606.167,49.5 614.5,49.5C 614.5,58.1667 614.5,66.8333 614.5,75.5C 623.167,75.5 631.833,75.5 640.5,75.5C 640.5,84.1667 640.5,92.8333 640.5,101.5C 649.167,101.5 657.833,101.5 666.5,101.5C 666.5,110.167 666.5,118.833 666.5,127.5C 675.167,127.5 683.833,127.5 692.5,127.5C 692.5,118.833 692.5,110.167 692.5,101.5C 700.833,101.5 709.167,101.5 717.5,101.5C 717.487,110.709 717.82,119.042 718.5,126.5C 719.478,126.023 720.311,125.357 721,124.5C 728.086,125.646 735.253,125.812 742.5,125C 739.988,123.127 740.154,121.293 743,119.5C 743.499,113.509 743.666,107.509 743.5,101.5C 751.833,101.5 760.167,101.5 768.5,101.5C 768.334,110.506 768.5,119.506 769,128.5C 777.415,127.517 785.915,127.183 794.5,127.5C 794.172,132.875 794.505,138.208 795.5,143.5C 796.736,144.246 798.07,144.579 799.5,144.5C 799.328,146.492 799.995,148.158 801.5,149.5C 800.471,149.296 799.471,149.796 798.5,151C 805.799,152.036 813.132,152.536 820.5,152.5C 820.334,157.511 820.501,162.511 821,167.5C 821.667,166.167 822.333,166.167 823,167.5C 821.985,171.915 823.485,174.582 827.5,175.5C 826.975,176.192 826.308,176.692 825.5,177C 827,177.5 828.5,178 830,178.5C 835.116,177.575 840.283,177.242 845.5,177.5C 845.5,169.167 845.5,160.833 845.5,152.5C 854.167,152.5 862.833,152.5 871.5,152.5C 871.5,160.833 871.5,169.167 871.5,177.5C 880.315,177.87 888.981,177.87 897.5,177.5C 897.5,169.167 897.5,160.833 897.5,152.5C 906.167,152.5 914.833,152.5 923.5,152.5 Z"/></g>
<g><path style="opacity:1" fill="#fafafa" d="M 948.5,-0.5 C 973.5,-0.5 998.5,-0.5 1023.5,-0.5C 1023.5,127.5 1023.5,255.5 1023.5,383.5C 1015.83,383.5 1008.17,383.5 1000.5,383.5C 1000.5,366.5 1000.5,349.5 1000.5,332.5C 974.833,332.5 949.167,332.5 923.5,332.5C 923.5,340.833 923.5,349.167 923.5,357.5C 914.833,357.5 906.167,357.5 897.5,357.5C 897.5,349.167 897.5,340.833 897.5,332.5C 893.649,333.029 890.149,332.362 887,330.5C 886.29,331.973 885.124,332.64 883.5,332.5C 901.298,295.943 898.298,261.277 874.5,228.5C 874.977,226.536 876.144,225.202 878,224.5C 880.147,225.596 880.647,227.096 879.5,229C 885.491,229.499 891.491,229.666 897.5,229.5C 898.833,212.5 898.833,195.5 897.5,178.5C 906.085,178.817 914.585,178.483 923,177.5C 923.5,169.173 923.666,160.84 923.5,152.5C 923.5,144.167 923.5,135.833 923.5,127.5C 931.833,127.5 940.167,127.5 948.5,127.5C 948.197,119.111 948.53,110.778 949.5,102.5C 940.859,101.502 932.192,101.169 923.5,101.5C 923.5,92.8333 923.5,84.1667 923.5,75.5C 931.833,75.5 940.167,75.5 948.5,75.5C 948.5,66.8333 948.5,58.1667 948.5,49.5C 940.167,49.5 931.833,49.5 923.5,49.5C 923.5,40.8333 923.5,32.1667 923.5,23.5C 931.833,23.5 940.167,23.5 948.5,23.5C 948.5,15.5 948.5,7.5 948.5,-0.5 Z"/></g>
<g><path style="opacity:1" fill="#06090b" d="M 874.5,228.5 C 898.298,261.277 901.298,295.943 883.5,332.5C 880.172,338.484 876.339,344.15 872,349.5C 735.473,487.027 598.64,624.193 461.5,761C 456.226,764.47 450.56,767.136 444.5,769C 390.945,783.534 337.612,798.368 284.5,813.5C 258.844,819.956 233.344,826.956 208,834.5C 195.042,833.375 187.876,826.375 186.5,813.5C 209.145,731.923 231.645,650.256 254,568.5C 260.5,559.333 268.333,551.5 277.5,545C 407.418,413.082 538.084,281.748 669.5,151C 675.221,146.279 681.221,141.946 687.5,138C 725.39,120.462 761.057,124.129 794.5,149C 821.089,175.756 847.755,202.256 874.5,228.5 Z"/></g>
<g><path style="opacity:1" fill="#fafafb" d="M 728.5,164.5 C 742.299,164.024 754.966,167.524 766.5,175C 790.667,198.5 814.833,222 839,245.5C 860.402,270.535 862.069,296.869 844,324.5C 829.667,338.833 815.333,353.167 801,367.5C 751.775,319.276 702.775,270.609 654,221.5C 653.333,220.5 653.333,219.5 654,218.5C 667.805,205.696 681.305,192.529 694.5,179C 704.625,171.098 715.958,166.265 728.5,164.5 Z"/></g>
<g><path style="opacity:1" fill="#fafafa" d="M -0.5,-0.5 C 67.8333,-0.5 136.167,-0.5 204.5,-0.5C 204.5,7.5 204.5,15.5 204.5,23.5C 196.167,23.5 187.833,23.5 179.5,23.5C 178.249,32.1747 178.249,40.8414 179.5,49.5C 187.833,49.5 196.167,49.5 204.5,49.5C 204.5,58.1667 204.5,66.8333 204.5,75.5C 195.833,75.5 187.167,75.5 178.5,75.5C 179.092,84.0255 179.092,92.6921 178.5,101.5C 169.833,101.5 161.167,101.5 152.5,101.5C 152.5,110.167 152.5,118.833 152.5,127.5C 161.167,127.5 169.833,127.5 178.5,127.5C 178.776,135.681 178.776,144.014 178.5,152.5C 169.833,152.5 161.167,152.5 152.5,152.5C 152.5,160.833 152.5,169.167 152.5,177.5C 161.208,177.255 169.874,177.589 178.5,178.5C 179.084,187.383 179.251,196.05 179,204.5C 187.23,203.834 195.73,203.501 204.5,203.5C 204.5,212.167 204.5,220.833 204.5,229.5C 195.833,229.5 187.167,229.5 178.5,229.5C 178.654,238.227 178.988,246.727 179.5,255C 187.827,255.5 196.16,255.666 204.5,255.5C 204.5,264.167 204.5,272.833 204.5,281.5C 212.833,281.5 221.167,281.5 229.5,281.5C 229.5,272.833 229.5,264.167 229.5,255.5C 238.167,255.5 246.833,255.5 255.5,255.5C 255.5,264.167 255.5,272.833 255.5,281.5C 264.167,281.5 272.833,281.5 281.5,281.5C 281.5,289.833 281.5,298.167 281.5,306.5C 289.833,306.5 298.167,306.5 306.5,306.5C 306.5,315.167 306.5,323.833 306.5,332.5C 306.183,341.085 306.517,349.585 307.5,358C 315.684,357.958 324.018,358.124 332.5,358.5C 332.5,366.833 332.5,375.167 332.5,383.5C 340.833,383.5 349.167,383.5 357.5,383.5C 357.294,391.966 357.627,400.133 358.5,408C 350.003,409.469 341.336,409.969 332.5,409.5C 332.5,417.833 332.5,426.167 332.5,434.5C 340.833,434.5 349.167,434.5 357.5,434.5C 357.83,441.532 357.497,448.532 356.5,455.5C 356.089,454.738 355.923,453.738 356,452.5C 354.647,451.315 353.48,449.981 352.5,448.5C 351.494,448.938 351.494,449.604 352.5,450.5C 349.569,452.488 346.903,454.155 344.5,455.5C 345.145,456.732 345.311,458.065 345,459.5C 346,459.167 347,458.833 348,458.5C 349.067,459.191 350.234,459.691 351.5,460C 345.175,460.5 338.842,460.666 332.5,460.5C 332.666,468.174 332.5,475.841 332,483.5C 331.71,481.956 331.044,480.623 330,479.5C 326.309,480.675 325.809,482.508 328.5,485C 321.174,485.5 313.841,485.666 306.5,485.5C 306.938,493.943 306.438,502.277 305,510.5C 297.246,511.317 289.412,511.817 281.5,512C 280.207,517.937 280.207,524.104 281.5,530.5C 280.178,530.33 279.011,530.663 278,531.5C 277.465,529.729 276.631,529.396 275.5,530.5C 277.836,532.073 277.836,533.406 275.5,534.5C 274.549,533.674 273.549,533.508 272.5,534C 274.962,535.85 274.462,537.017 271,537.5C 265.742,536.32 260.576,536.32 255.5,537.5C 255.5,528.833 255.5,520.167 255.5,511.5C 247.167,511.5 238.833,511.5 230.5,511.5C 230.817,502.915 230.483,494.415 229.5,486C 221.173,485.5 212.84,485.334 204.5,485.5C 204.5,477.167 204.5,468.833 204.5,460.5C 195.833,460.5 187.167,460.5 178.5,460.5C 178.674,451.994 178.674,443.327 178.5,434.5C 169.833,434.5 161.167,434.5 152.5,434.5C 152.5,426.167 152.5,417.833 152.5,409.5C 144.167,409.5 135.833,409.5 127.5,409.5C 127.5,400.833 127.5,392.167 127.5,383.5C 135.833,383.5 144.167,383.5 152.5,383.5C 152.184,375.248 152.518,367.081 153.5,359C 161.827,358.5 170.16,358.334 178.5,358.5C 178.716,349.989 178.716,341.323 178.5,332.5C 169.833,332.5 161.167,332.5 152.5,332.5C 152.5,340.833 152.5,349.167 152.5,357.5C 144.167,357.5 135.833,357.5 127.5,357.5C 127.5,349.167 127.5,340.833 127.5,332.5C 127.5,306.833 127.5,281.167 127.5,255.5C 118.833,255.5 110.167,255.5 101.5,255.5C 101.5,246.833 101.5,238.167 101.5,229.5C 93.1667,229.5 84.8333,229.5 76.5,229.5C 76.5,221.167 76.5,212.833 76.5,204.5C 59.0108,204.034 41.6774,203.701 24.5,203.5C 24.6664,195.16 24.4997,186.827 24,178.5C 15.8752,178.613 7.70856,178.28 -0.5,177.5C -0.5,118.167 -0.5,58.8333 -0.5,-0.5 Z"/></g>
<g><path style="opacity:1" fill="#fbfbfb" d="M 625.5,247.5 C 641.995,263.16 657.828,279.16 673,295.5C 566.833,401.667 460.667,507.833 354.5,614C 353.833,614.667 353.167,614.667 352.5,614C 336.887,598.387 321.221,582.721 305.5,567C 307.156,565.171 309.156,563.837 311.5,563C 416.729,458.271 521.396,353.105 625.5,247.5 Z"/></g>
<g><path style="opacity:1" fill="#fbfbfb" d="M 699.5,321.5 C 724.835,345.332 749.835,369.832 774.5,395C 667.6,501.233 560.767,607.4 454,713.5C 429.216,689.717 404.716,665.55 380.5,641C 486.368,533.966 592.701,427.466 699.5,321.5 Z"/></g>
<g><path style="opacity:1" fill="#f9f9fa" d="M -0.5,177.5 C 7.70856,178.28 15.8752,178.613 24,178.5C 24.4997,186.827 24.6664,195.16 24.5,203.5C 41.6774,203.701 59.0108,204.034 76.5,204.5C 76.5,212.833 76.5,221.167 76.5,229.5C 84.8333,229.5 93.1667,229.5 101.5,229.5C 101.5,238.167 101.5,246.833 101.5,255.5C 110.167,255.5 118.833,255.5 127.5,255.5C 127.5,281.167 127.5,306.833 127.5,332.5C 118.833,332.5 110.167,332.5 101.5,332.5C 101.5,340.833 101.5,349.167 101.5,357.5C 93.1667,357.5 84.8333,357.5 76.5,357.5C 76.5,349.167 76.5,340.833 76.5,332.5C 67.8333,332.5 59.1667,332.5 50.5,332.5C 50.1546,358.025 50.1546,383.692 50.5,409.5C 59.1667,409.5 67.8333,409.5 76.5,409.5C 76.5,417.833 76.5,426.167 76.5,434.5C 84.8333,434.5 93.1667,434.5 101.5,434.5C 101.5,443.167 101.5,451.833 101.5,460.5C 93.1667,460.5 84.8333,460.5 76.5,460.5C 76.5,468.833 76.5,477.167 76.5,485.5C 84.7524,485.184 92.919,485.518 101,486.5C 101.5,494.827 101.666,503.16 101.5,511.5C 110.167,511.5 118.833,511.5 127.5,511.5C 127.5,520.167 127.5,528.833 127.5,537.5C 118.833,537.5 110.167,537.5 101.5,537.5C 101.5,545.833 101.5,554.167 101.5,562.5C 110.328,563.099 118.995,563.433 127.5,563.5C 127.5,571.833 127.5,580.167 127.5,588.5C 118.833,588.5 110.167,588.5 101.5,588.5C 101.5,597.167 101.5,605.833 101.5,614.5C 110.167,614.5 118.833,614.5 127.5,614.5C 127.5,606.167 127.5,597.833 127.5,589.5C 135.865,589.579 144.032,589.246 152,588.5C 152.5,579.84 152.666,571.173 152.5,562.5C 161.057,562.704 169.724,562.704 178.5,562.5C 178.536,554.245 178.536,545.911 178.5,537.5C 187.167,537.5 195.833,537.5 204.5,537.5C 204.5,545.833 204.5,554.167 204.5,562.5C 212.781,563.016 220.781,563.016 228.5,562.5C 229.498,571.141 229.831,579.808 229.5,588.5C 221.167,588.5 212.833,588.5 204.5,588.5C 204.5,597.167 204.5,605.833 204.5,614.5C 213.173,614.334 221.84,614.5 230.5,615C 230.445,622.608 230.112,630.774 229.5,639.5C 221.167,639.5 212.833,639.5 204.5,639.5C 204.5,648.167 204.5,656.833 204.5,665.5C 195.833,665.5 187.167,665.5 178.5,665.5C 178.951,673.78 178.951,682.114 178.5,690.5C 169.915,690.183 161.415,690.517 153,691.5C 152.5,682.84 152.334,674.173 152.5,665.5C 144.167,665.5 135.833,665.5 127.5,665.5C 127.5,673.833 127.5,682.167 127.5,690.5C 118.833,690.5 110.167,690.5 101.5,690.5C 101.5,682.167 101.5,673.833 101.5,665.5C 93.1667,665.5 84.8333,665.5 76.5,665.5C 76.5,673.833 76.5,682.167 76.5,690.5C 59.1667,690.833 41.8333,691.167 24.5,691.5C 24.5,700.167 24.5,708.833 24.5,717.5C 16.1667,717.5 7.83333,717.5 -0.5,717.5C -0.5,537.5 -0.5,357.5 -0.5,177.5 Z"/></g>
<g><path style="opacity:1" fill="#fafafa" d="M 1023.5,383.5 C 1023.5,409.167 1023.5,434.833 1023.5,460.5C 1015.83,460.5 1008.17,460.5 1000.5,460.5C 1000.5,451.833 1000.5,443.167 1000.5,434.5C 991.833,434.5 983.167,434.5 974.5,434.5C 974.5,426.167 974.5,417.833 974.5,409.5C 966.167,409.5 957.833,409.5 949.5,409.5C 949.666,401.16 949.5,392.827 949,384.5C 940.585,383.517 932.085,383.183 923.5,383.5C 923.5,392.167 923.5,400.833 923.5,409.5C 931.833,409.5 940.167,409.5 948.5,409.5C 948.26,417.875 948.593,426.208 949.5,434.5C 940.833,434.5 932.167,434.5 923.5,434.5C 923.5,443.167 923.5,451.833 923.5,460.5C 931.86,460.169 940.193,460.502 948.5,461.5C 948.679,469.044 948.679,477.044 948.5,485.5C 940.167,485.5 931.833,485.5 923.5,485.5C 923.5,494.167 923.5,502.833 923.5,511.5C 931.833,511.5 940.167,511.5 948.5,511.5C 948.197,519.889 948.53,528.222 949.5,536.5C 957.807,537.498 966.14,537.831 974.5,537.5C 974.5,545.833 974.5,554.167 974.5,562.5C 966.167,562.5 957.833,562.5 949.5,562.5C 949.816,554.248 949.482,546.081 948.5,538C 940.173,537.5 931.84,537.334 923.5,537.5C 923.5,545.833 923.5,554.167 923.5,562.5C 914.833,562.5 906.167,562.5 897.5,562.5C 897.5,554.167 897.5,545.833 897.5,537.5C 888.833,537.5 880.167,537.5 871.5,537.5C 871.5,545.833 871.5,554.167 871.5,562.5C 879.821,562.683 888.154,563.016 896.5,563.5C 897.498,571.807 897.831,580.14 897.5,588.5C 888.833,588.5 880.167,588.5 871.5,588.5C 871.5,597.167 871.5,605.833 871.5,614.5C 880.167,614.5 888.833,614.5 897.5,614.5C 897.5,606.167 897.5,597.833 897.5,589.5C 923.453,588.76 949.119,588.427 974.5,588.5C 974.5,597.167 974.5,605.833 974.5,614.5C 965.833,614.5 957.167,614.5 948.5,614.5C 948.5,622.833 948.5,631.167 948.5,639.5C 940.167,639.5 931.833,639.5 923.5,639.5C 923.5,648.167 923.5,656.833 923.5,665.5C 914.833,665.5 906.167,665.5 897.5,665.5C 897.5,673.833 897.5,682.167 897.5,690.5C 889.16,690.334 880.827,690.5 872.5,691C 871.517,699.415 871.183,707.915 871.5,716.5C 862.833,716.5 854.167,716.5 845.5,716.5C 845.666,708.16 845.5,699.827 845,691.5C 836.919,690.518 828.752,690.184 820.5,690.5C 820.5,682.167 820.5,673.833 820.5,665.5C 811.833,665.5 803.167,665.5 794.5,665.5C 794.5,673.833 794.5,682.167 794.5,690.5C 785.915,690.183 777.415,690.517 769,691.5C 768.5,682.84 768.334,674.173 768.5,665.5C 760.167,665.5 751.833,665.5 743.5,665.5C 743.5,673.833 743.5,682.167 743.5,690.5C 734.977,691.008 726.31,691.008 717.5,690.5C 717.5,682.167 717.5,673.833 717.5,665.5C 709.167,665.5 700.833,665.5 692.5,665.5C 692.5,673.833 692.5,682.167 692.5,690.5C 683.833,690.5 675.167,690.5 666.5,690.5C 666.5,682.167 666.5,673.833 666.5,665.5C 657.833,665.5 649.167,665.5 640.5,665.5C 640.5,674.167 640.5,682.833 640.5,691.5C 649.167,691.5 657.833,691.5 666.5,691.5C 666.5,699.833 666.5,708.167 666.5,716.5C 657.833,716.5 649.167,716.5 640.5,716.5C 640.5,725.167 640.5,733.833 640.5,742.5C 649.167,742.5 657.833,742.5 666.5,742.5C 666.5,750.833 666.5,759.167 666.5,767.5C 675.167,767.5 683.833,767.5 692.5,767.5C 692.5,759.167 692.5,750.833 692.5,742.5C 700.752,742.816 708.919,742.482 717,741.5C 717.5,733.173 717.666,724.84 717.5,716.5C 726,717.722 734.667,717.722 743.5,716.5C 743.666,724.84 743.5,733.173 743,741.5C 735.46,741.705 727.293,742.039 718.5,742.5C 717.502,750.807 717.169,759.14 717.5,767.5C 726.167,767.5 734.833,767.5 743.5,767.5C 743.5,759.167 743.5,750.833 743.5,742.5C 751.833,742.5 760.167,742.5 768.5,742.5C 768.5,733.833 768.5,725.167 768.5,716.5C 777.265,717.363 785.932,717.363 794.5,716.5C 794.5,708.167 794.5,699.833 794.5,691.5C 803.167,691.5 811.833,691.5 820.5,691.5C 820.5,699.833 820.5,708.167 820.5,716.5C 826.358,716.178 832.025,716.511 837.5,717.5C 831.833,717.5 826.167,717.5 820.5,717.5C 820.5,725.833 820.5,734.167 820.5,742.5C 811.833,742.5 803.167,742.5 794.5,742.5C 794.5,750.833 794.5,759.167 794.5,767.5C 803.167,767.5 811.833,767.5 820.5,767.5C 820.5,776.167 820.5,784.833 820.5,793.5C 828.833,793.5 837.167,793.5 845.5,793.5C 845.5,802.167 845.5,810.833 845.5,819.5C 854.167,819.5 862.833,819.5 871.5,819.5C 871.5,828.167 871.5,836.833 871.5,845.5C 862.833,845.5 854.167,845.5 845.5,845.5C 845.5,853.833 845.5,862.167 845.5,870.5C 837.167,870.5 828.833,870.5 820.5,870.5C 811.833,870.5 803.167,870.5 794.5,870.5C 794.5,862.167 794.5,853.833 794.5,845.5C 785.833,845.5 777.167,845.5 768.5,845.5C 768.5,836.833 768.5,828.167 768.5,819.5C 760.167,819.5 751.833,819.5 743.5,819.5C 743.5,810.833 743.5,802.167 743.5,793.5C 734.833,793.5 726.167,793.5 717.5,793.5C 717.5,802.167 717.5,810.833 717.5,819.5C 709.167,819.5 700.833,819.5 692.5,819.5C 692.5,828.167 692.5,836.833 692.5,845.5C 700.833,845.5 709.167,845.5 717.5,845.5C 717.5,853.833 717.5,862.167 717.5,870.5C 709.167,870.5 700.833,870.5 692.5,870.5C 692.5,878.833 692.5,887.167 692.5,895.5C 683.833,895.5 675.167,895.5 666.5,895.5C 666.5,887.167 666.5,878.833 666.5,870.5C 657.833,870.5 649.167,870.5 640.5,870.5C 640.5,862.167 640.5,853.833 640.5,845.5C 631.833,845.5 623.167,845.5 614.5,845.5C 614.5,836.833 614.5,828.167 614.5,819.5C 605.915,819.183 597.415,819.517 589,820.5C 588.5,828.827 588.334,837.16 588.5,845.5C 580.167,845.5 571.833,845.5 563.5,845.5C 563.5,836.833 563.5,828.167 563.5,819.5C 555.167,819.5 546.833,819.5 538.5,819.5C 538.5,828.167 538.5,836.833 538.5,845.5C 529.833,845.5 521.167,845.5 512.5,845.5C 512.5,836.833 512.5,828.167 512.5,819.5C 503.833,819.5 495.167,819.5 486.5,819.5C 486.5,828.167 486.5,836.833 486.5,845.5C 478.167,845.5 469.833,845.5 461.5,845.5C 461.817,836.915 461.483,828.415 460.5,820C 452.173,819.5 443.84,819.334 435.5,819.5C 435.5,828.167 435.5,836.833 435.5,845.5C 426.833,845.5 418.167,845.5 409.5,845.5C 409.5,850.167 409.5,854.833 409.5,859.5C 401.167,859.5 392.833,859.5 384.5,859.5C 384.8,854.901 384.467,850.401 383.5,846C 375.173,845.5 366.84,845.334 358.5,845.5C 358.5,836.833 358.5,828.167 358.5,819.5C 349.833,819.5 341.167,819.5 332.5,819.5C 332.5,828.167 332.5,836.833 332.5,845.5C 323.833,845.5 315.167,845.5 306.5,845.5C 306.5,836.833 306.5,828.167 306.5,819.5C 298.14,819.831 289.807,819.498 281.5,818.5C 282.641,817.575 282.641,816.741 281.5,816C 282.993,814.632 284.493,814.465 286,815.5C 286.528,814.184 286.028,813.517 284.5,813.5C 337.612,798.368 390.945,783.534 444.5,769C 450.56,767.136 456.226,764.47 461.5,761C 598.64,624.193 735.473,487.027 872,349.5C 876.339,344.15 880.172,338.484 883.5,332.5C 885.124,332.64 886.29,331.973 887,330.5C 890.149,332.362 893.649,333.029 897.5,332.5C 897.5,340.833 897.5,349.167 897.5,357.5C 906.167,357.5 914.833,357.5 923.5,357.5C 923.5,349.167 923.5,340.833 923.5,332.5C 949.167,332.5 974.833,332.5 1000.5,332.5C 1000.5,349.5 1000.5,366.5 1000.5,383.5C 1008.17,383.5 1015.83,383.5 1023.5,383.5 Z"/></g>
<g><path style="opacity:1" fill="#fbfbfb" d="M 1023.5,460.5 C 1023.5,545.833 1023.5,631.167 1023.5,716.5C 1006.81,717.177 990.474,717.177 974.5,716.5C 974.334,708.16 974.5,699.827 975,691.5C 983.415,690.517 991.915,690.183 1000.5,690.5C 1000.5,682.167 1000.5,673.833 1000.5,665.5C 991.833,665.5 983.167,665.5 974.5,665.5C 974.5,656.833 974.5,648.167 974.5,639.5C 966.167,639.5 957.833,639.5 949.5,639.5C 949.803,647.889 949.47,656.222 948.5,664.5C 940.193,665.498 931.86,665.831 923.5,665.5C 923.5,656.833 923.5,648.167 923.5,639.5C 931.833,639.5 940.167,639.5 948.5,639.5C 948.5,631.167 948.5,622.833 948.5,614.5C 957.167,614.5 965.833,614.5 974.5,614.5C 974.5,605.833 974.5,597.167 974.5,588.5C 949.119,588.427 923.453,588.76 897.5,589.5C 897.5,597.833 897.5,606.167 897.5,614.5C 888.833,614.5 880.167,614.5 871.5,614.5C 871.5,605.833 871.5,597.167 871.5,588.5C 880.167,588.5 888.833,588.5 897.5,588.5C 897.831,580.14 897.498,571.807 896.5,563.5C 888.154,563.016 879.821,562.683 871.5,562.5C 871.5,554.167 871.5,545.833 871.5,537.5C 880.167,537.5 888.833,537.5 897.5,537.5C 897.5,545.833 897.5,554.167 897.5,562.5C 906.167,562.5 914.833,562.5 923.5,562.5C 923.5,554.167 923.5,545.833 923.5,537.5C 931.84,537.334 940.173,537.5 948.5,538C 949.482,546.081 949.816,554.248 949.5,562.5C 957.833,562.5 966.167,562.5 974.5,562.5C 974.5,554.167 974.5,545.833 974.5,537.5C 966.14,537.831 957.807,537.498 949.5,536.5C 948.53,528.222 948.197,519.889 948.5,511.5C 940.167,511.5 931.833,511.5 923.5,511.5C 923.5,502.833 923.5,494.167 923.5,485.5C 931.833,485.5 940.167,485.5 948.5,485.5C 948.679,477.044 948.679,469.044 948.5,461.5C 940.193,460.502 931.86,460.169 923.5,460.5C 923.5,451.833 923.5,443.167 923.5,434.5C 932.167,434.5 940.833,434.5 949.5,434.5C 948.593,426.208 948.26,417.875 948.5,409.5C 940.167,409.5 931.833,409.5 923.5,409.5C 923.5,400.833 923.5,392.167 923.5,383.5C 932.085,383.183 940.585,383.517 949,384.5C 949.5,392.827 949.666,401.16 949.5,409.5C 957.833,409.5 966.167,409.5 974.5,409.5C 974.5,417.833 974.5,426.167 974.5,434.5C 983.167,434.5 991.833,434.5 1000.5,434.5C 1000.5,443.167 1000.5,451.833 1000.5,460.5C 1008.17,460.5 1015.83,460.5 1023.5,460.5 Z"/></g>
<g><path style="opacity:1" fill="#fbfbfb" d="M 283.5,598.5 C 323.299,637.799 362.965,677.299 402.5,717C 409.944,722.275 416.611,728.442 422.5,735.5C 382.899,746.984 343.233,758.318 303.5,769.5C 285.667,752.5 268.333,735 251.5,717C 262.407,677.535 273.074,638.035 283.5,598.5 Z"/></g>
<g><path style="opacity:1" fill="#fcfcfd" d="M 923.5,665.5 C 923.5,674.167 923.5,682.833 923.5,691.5C 914.833,691.5 906.167,691.5 897.5,691.5C 897.334,700.173 897.5,708.84 898,717.5C 906.415,716.517 914.915,716.183 923.5,716.5C 923.5,724.833 923.5,733.167 923.5,741.5C 931.84,741.334 940.173,741.5 948.5,742C 949.259,750.302 949.592,758.802 949.5,767.5C 957.833,767.5 966.167,767.5 974.5,767.5C 974.5,776.167 974.5,784.833 974.5,793.5C 966.167,793.5 957.833,793.5 949.5,793.5C 949.666,801.84 949.5,810.173 949,818.5C 940.585,819.483 932.085,819.817 923.5,819.5C 923.5,810.833 923.5,802.167 923.5,793.5C 914.833,793.5 906.167,793.5 897.5,793.5C 897.5,784.833 897.5,776.167 897.5,767.5C 888.833,767.5 880.167,767.5 871.5,767.5C 871.5,759.167 871.5,750.833 871.5,742.5C 863.16,742.666 854.827,742.5 846.5,742C 845.518,733.919 845.184,725.752 845.5,717.5C 842.691,717.043 840.024,717.043 837.5,717.5C 832.025,716.511 826.358,716.178 820.5,716.5C 820.5,708.167 820.5,699.833 820.5,691.5C 811.833,691.5 803.167,691.5 794.5,691.5C 794.5,699.833 794.5,708.167 794.5,716.5C 785.932,717.363 777.265,717.363 768.5,716.5C 768.5,725.167 768.5,733.833 768.5,742.5C 760.167,742.5 751.833,742.5 743.5,742.5C 743.5,750.833 743.5,759.167 743.5,767.5C 734.833,767.5 726.167,767.5 717.5,767.5C 717.169,759.14 717.502,750.807 718.5,742.5C 727.293,742.039 735.46,741.705 743,741.5C 743.5,733.173 743.666,724.84 743.5,716.5C 734.667,717.722 726,717.722 717.5,716.5C 717.666,724.84 717.5,733.173 717,741.5C 708.919,742.482 700.752,742.816 692.5,742.5C 692.5,750.833 692.5,759.167 692.5,767.5C 683.833,767.5 675.167,767.5 666.5,767.5C 666.5,759.167 666.5,750.833 666.5,742.5C 657.833,742.5 649.167,742.5 640.5,742.5C 640.5,733.833 640.5,725.167 640.5,716.5C 649.167,716.5 657.833,716.5 666.5,716.5C 666.5,708.167 666.5,699.833 666.5,691.5C 657.833,691.5 649.167,691.5 640.5,691.5C 640.5,682.833 640.5,674.167 640.5,665.5C 649.167,665.5 657.833,665.5 666.5,665.5C 666.5,673.833 666.5,682.167 666.5,690.5C 675.167,690.5 683.833,690.5 692.5,690.5C 692.5,682.167 692.5,673.833 692.5,665.5C 700.833,665.5 709.167,665.5 717.5,665.5C 717.5,673.833 717.5,682.167 717.5,690.5C 726.31,691.008 734.977,691.008 743.5,690.5C 743.5,682.167 743.5,673.833 743.5,665.5C 751.833,665.5 760.167,665.5 768.5,665.5C 768.334,674.173 768.5,682.84 769,691.5C 777.415,690.517 785.915,690.183 794.5,690.5C 794.5,682.167 794.5,673.833 794.5,665.5C 803.167,665.5 811.833,665.5 820.5,665.5C 820.5,673.833 820.5,682.167 820.5,690.5C 828.752,690.184 836.919,690.518 845,691.5C 845.5,699.827 845.666,708.16 845.5,716.5C 854.167,716.5 862.833,716.5 871.5,716.5C 871.183,707.915 871.517,699.415 872.5,691C 880.827,690.5 889.16,690.334 897.5,690.5C 897.5,682.167 897.5,673.833 897.5,665.5C 906.167,665.5 914.833,665.5 923.5,665.5 Z"/></g>
<g><path style="opacity:1" fill="#f9f9f9" d="M 76.5,690.5 C 84.6499,691.493 92.9832,691.826 101.5,691.5C 101.5,699.833 101.5,708.167 101.5,716.5C 93.1667,716.5 84.8333,716.5 76.5,716.5C 76.5,725.167 76.5,733.833 76.5,742.5C 84.8333,742.5 93.1667,742.5 101.5,742.5C 101.5,750.833 101.5,759.167 101.5,767.5C 110.167,767.5 118.833,767.5 127.5,767.5C 127.5,776.167 127.5,784.833 127.5,793.5C 135.833,793.5 144.167,793.5 152.5,793.5C 152.5,802.167 152.5,810.833 152.5,819.5C 161.167,819.5 169.833,819.5 178.5,819.5C 178.5,828.167 178.5,836.833 178.5,845.5C 187.167,845.5 195.833,845.5 204.5,845.5C 204.5,853.833 204.5,862.167 204.5,870.5C 195.833,870.5 187.167,870.5 178.5,870.5C 178.334,878.507 178.5,886.507 179,894.5C 179.75,895.126 180.584,895.626 181.5,896C 189.159,896.5 196.826,896.666 204.5,896.5C 204.5,904.833 204.5,913.167 204.5,921.5C 196.14,921.831 187.807,921.498 179.5,920.5C 178.226,912.611 178.226,904.778 179.5,897C 175.174,895.86 170.674,895.36 166,895.5C 161.585,895.514 157.252,895.848 153,896.5C 152.5,904.827 152.334,913.16 152.5,921.5C 144.167,921.5 135.833,921.5 127.5,921.5C 127.5,913.167 127.5,904.833 127.5,896.5C 135.596,896.566 143.762,896.232 152,895.5C 152.5,887.173 152.666,878.84 152.5,870.5C 144.167,870.5 135.833,870.5 127.5,870.5C 127.5,878.833 127.5,887.167 127.5,895.5C 118.833,895.5 110.167,895.5 101.5,895.5C 101.5,887.167 101.5,878.833 101.5,870.5C 93.1667,870.5 84.8333,870.5 76.5,870.5C 76.5,878.833 76.5,887.167 76.5,895.5C 67.8333,895.5 59.1667,895.5 50.5,895.5C 50.5,887.167 50.5,878.833 50.5,870.5C 41.8333,870.5 33.1667,870.5 24.5,870.5C 24.3336,878.84 24.5003,887.173 25,895.5C 33.4149,896.483 41.9149,896.817 50.5,896.5C 50.5,904.833 50.5,913.167 50.5,921.5C 59.1667,921.5 67.8333,921.5 76.5,921.5C 76.5,930.167 76.5,938.833 76.5,947.5C 84.8333,947.5 93.1667,947.5 101.5,947.5C 101.5,956.167 101.5,964.833 101.5,973.5C 110.167,973.5 118.833,973.5 127.5,973.5C 127.5,982.167 127.5,990.833 127.5,999.5C 135.833,999.5 144.167,999.5 152.5,999.5C 152.5,990.833 152.5,982.167 152.5,973.5C 161.167,973.5 169.833,973.5 178.5,973.5C 178.334,981.84 178.5,990.173 179,998.5C 187.415,999.483 195.915,999.817 204.5,999.5C 204.5,1007.5 204.5,1015.5 204.5,1023.5C 136.167,1023.5 67.8333,1023.5 -0.5,1023.5C -0.5,921.5 -0.5,819.5 -0.5,717.5C 7.83333,717.5 16.1667,717.5 24.5,717.5C 24.5,708.833 24.5,700.167 24.5,691.5C 41.8333,691.167 59.1667,690.833 76.5,690.5 Z"/></g>
<g><path style="opacity:1" fill="#f9f9f9" d="M 1023.5,716.5 C 1023.5,802.167 1023.5,887.833 1023.5,973.5C 1015.83,973.5 1008.17,973.5 1000.5,973.5C 1000.67,981.84 1000.5,990.173 1000,998.5C 991.585,999.483 983.085,999.817 974.5,999.5C 974.5,990.833 974.5,982.167 974.5,973.5C 966.14,973.169 957.807,973.502 949.5,974.5C 948.53,982.778 948.197,991.111 948.5,999.5C 940.167,999.5 931.833,999.5 923.5,999.5C 923.5,990.833 923.5,982.167 923.5,973.5C 914.833,973.5 906.167,973.5 897.5,973.5C 897.5,964.833 897.5,956.167 897.5,947.5C 888.833,947.5 880.167,947.5 871.5,947.5C 871.5,938.833 871.5,930.167 871.5,921.5C 862.833,921.5 854.167,921.5 845.5,921.5C 845.5,912.833 845.5,904.167 845.5,895.5C 837.167,895.5 828.833,895.5 820.5,895.5C 820.5,887.167 820.5,878.833 820.5,870.5C 828.833,870.5 837.167,870.5 845.5,870.5C 845.5,862.167 845.5,853.833 845.5,845.5C 854.167,845.5 862.833,845.5 871.5,845.5C 871.5,836.833 871.5,828.167 871.5,819.5C 862.833,819.5 854.167,819.5 845.5,819.5C 845.5,810.833 845.5,802.167 845.5,793.5C 837.167,793.5 828.833,793.5 820.5,793.5C 820.5,784.833 820.5,776.167 820.5,767.5C 811.833,767.5 803.167,767.5 794.5,767.5C 794.5,759.167 794.5,750.833 794.5,742.5C 803.167,742.5 811.833,742.5 820.5,742.5C 820.5,734.167 820.5,725.833 820.5,717.5C 826.167,717.5 831.833,717.5 837.5,717.5C 840.024,717.043 842.691,717.043 845.5,717.5C 845.184,725.752 845.518,733.919 846.5,742C 854.827,742.5 863.16,742.666 871.5,742.5C 871.5,750.833 871.5,759.167 871.5,767.5C 880.167,767.5 888.833,767.5 897.5,767.5C 897.5,776.167 897.5,784.833 897.5,793.5C 906.167,793.5 914.833,793.5 923.5,793.5C 923.5,802.167 923.5,810.833 923.5,819.5C 932.085,819.817 940.585,819.483 949,818.5C 949.5,810.173 949.666,801.84 949.5,793.5C 957.833,793.5 966.167,793.5 974.5,793.5C 974.5,784.833 974.5,776.167 974.5,767.5C 966.167,767.5 957.833,767.5 949.5,767.5C 949.592,758.802 949.259,750.302 948.5,742C 940.173,741.5 931.84,741.334 923.5,741.5C 923.5,733.167 923.5,724.833 923.5,716.5C 914.915,716.183 906.415,716.517 898,717.5C 897.5,708.84 897.334,700.173 897.5,691.5C 906.167,691.5 914.833,691.5 923.5,691.5C 923.5,682.833 923.5,674.167 923.5,665.5C 931.86,665.831 940.193,665.498 948.5,664.5C 949.47,656.222 949.803,647.889 949.5,639.5C 957.833,639.5 966.167,639.5 974.5,639.5C 974.5,648.167 974.5,656.833 974.5,665.5C 983.167,665.5 991.833,665.5 1000.5,665.5C 1000.5,673.833 1000.5,682.167 1000.5,690.5C 991.915,690.183 983.415,690.517 975,691.5C 974.5,699.827 974.334,708.16 974.5,716.5C 990.474,717.177 1006.81,717.177 1023.5,716.5 Z"/></g>
<g><path style="opacity:1" fill="#f7f7f7" d="M 239.5,761.5 C 246.778,767.109 253.444,773.442 259.5,780.5C 250.581,783.418 241.581,786.084 232.5,788.5C 234,779.506 236.334,770.506 239.5,761.5 Z"/></g>
<g><path style="opacity:1" fill="#090c0e" d="M 631.5,893.5 C 628.408,896.379 624.741,898.213 620.5,899C 489.833,899.667 359.167,899.667 228.5,899C 223.515,897.36 219.515,894.526 216.5,890.5C 211.029,877.092 215.029,867.592 228.5,862C 359.5,861.333 490.5,861.333 621.5,862C 637.052,868.607 640.385,879.107 631.5,893.5 Z"/></g>
<g><path style="opacity:1" fill="#fafafa" d="M 820.5,870.5 C 820.5,878.833 820.5,887.167 820.5,895.5C 828.833,895.5 837.167,895.5 845.5,895.5C 845.5,904.167 845.5,912.833 845.5,921.5C 854.167,921.5 862.833,921.5 871.5,921.5C 871.5,930.167 871.5,938.833 871.5,947.5C 880.167,947.5 888.833,947.5 897.5,947.5C 897.5,956.167 897.5,964.833 897.5,973.5C 906.167,973.5 914.833,973.5 923.5,973.5C 923.5,982.167 923.5,990.833 923.5,999.5C 931.833,999.5 940.167,999.5 948.5,999.5C 948.197,991.111 948.53,982.778 949.5,974.5C 957.807,973.502 966.14,973.169 974.5,973.5C 974.5,982.167 974.5,990.833 974.5,999.5C 983.085,999.817 991.585,999.483 1000,998.5C 1000.5,990.173 1000.67,981.84 1000.5,973.5C 1008.17,973.5 1015.83,973.5 1023.5,973.5C 1023.5,990.167 1023.5,1006.83 1023.5,1023.5C 750.5,1023.5 477.5,1023.5 204.5,1023.5C 204.5,1015.5 204.5,1007.5 204.5,999.5C 195.915,999.817 187.415,999.483 179,998.5C 178.5,990.173 178.334,981.84 178.5,973.5C 179.657,965.172 179.823,956.838 179,948.5C 187.415,947.517 195.915,947.183 204.5,947.5C 204.5,938.833 204.5,930.167 204.5,921.5C 204.5,913.167 204.5,904.833 204.5,896.5C 196.826,896.666 189.159,896.5 181.5,896C 180.584,895.626 179.75,895.126 179,894.5C 178.5,886.507 178.334,878.507 178.5,870.5C 187.167,870.5 195.833,870.5 204.5,870.5C 204.5,878.833 204.5,887.167 204.5,895.5C 208.182,895.665 211.848,895.499 215.5,895C 214.833,894.667 214.167,894.333 213.5,894C 214.814,893.015 215.814,891.848 216.5,890.5C 219.515,894.526 223.515,897.36 228.5,899C 359.167,899.667 489.833,899.667 620.5,899C 624.741,898.213 628.408,896.379 631.5,893.5C 634.145,895.242 637.145,895.909 640.5,895.5C 640.5,887.167 640.5,878.833 640.5,870.5C 649.167,870.5 657.833,870.5 666.5,870.5C 666.5,878.833 666.5,887.167 666.5,895.5C 675.167,895.5 683.833,895.5 692.5,895.5C 692.5,887.167 692.5,878.833 692.5,870.5C 700.833,870.5 709.167,870.5 717.5,870.5C 717.5,862.167 717.5,853.833 717.5,845.5C 709.167,845.5 700.833,845.5 692.5,845.5C 692.5,836.833 692.5,828.167 692.5,819.5C 700.833,819.5 709.167,819.5 717.5,819.5C 717.5,810.833 717.5,802.167 717.5,793.5C 726.167,793.5 734.833,793.5 743.5,793.5C 743.5,802.167 743.5,810.833 743.5,819.5C 751.833,819.5 760.167,819.5 768.5,819.5C 768.5,828.167 768.5,836.833 768.5,845.5C 777.167,845.5 785.833,845.5 794.5,845.5C 794.5,853.833 794.5,862.167 794.5,870.5C 803.167,870.5 811.833,870.5 820.5,870.5 Z"/></g>
<g><path style="opacity:1" fill="#fcfcfc" d="M 204.5,921.5 C 204.5,930.167 204.5,938.833 204.5,947.5C 195.915,947.183 187.415,947.517 179,948.5C 179.823,956.838 179.657,965.172 178.5,973.5C 169.833,973.5 161.167,973.5 152.5,973.5C 152.5,982.167 152.5,990.833 152.5,999.5C 144.167,999.5 135.833,999.5 127.5,999.5C 127.5,990.833 127.5,982.167 127.5,973.5C 118.833,973.5 110.167,973.5 101.5,973.5C 101.5,964.833 101.5,956.167 101.5,947.5C 93.1667,947.5 84.8333,947.5 76.5,947.5C 76.5,938.833 76.5,930.167 76.5,921.5C 67.8333,921.5 59.1667,921.5 50.5,921.5C 50.5,913.167 50.5,904.833 50.5,896.5C 41.9149,896.817 33.4149,896.483 25,895.5C 24.5003,887.173 24.3336,878.84 24.5,870.5C 33.1667,870.5 41.8333,870.5 50.5,870.5C 50.5,878.833 50.5,887.167 50.5,895.5C 59.1667,895.5 67.8333,895.5 76.5,895.5C 76.5,887.167 76.5,878.833 76.5,870.5C 84.8333,870.5 93.1667,870.5 101.5,870.5C 101.5,878.833 101.5,887.167 101.5,895.5C 110.167,895.5 118.833,895.5 127.5,895.5C 127.5,887.167 127.5,878.833 127.5,870.5C 135.833,870.5 144.167,870.5 152.5,870.5C 152.666,878.84 152.5,887.173 152,895.5C 143.762,896.232 135.596,896.566 127.5,896.5C 127.5,904.833 127.5,913.167 127.5,921.5C 135.833,921.5 144.167,921.5 152.5,921.5C 152.334,913.16 152.5,904.827 153,896.5C 157.252,895.848 161.585,895.514 166,895.5C 170.674,895.36 175.174,895.86 179.5,897C 178.226,904.778 178.226,912.611 179.5,920.5C 187.807,921.498 196.14,921.831 204.5,921.5 Z"/></g>
</svg>
