<?xml version="1.0" encoding="UTF-8"?>
<svg xmlns="http://www.w3.org/2000/svg" version="1.1" viewBox="0 0 1024 1024">
  <defs>
    <style>
      .cls-1 {
        fill: #fefefe;
      }

      .cls-1, .cls-2, .cls-3, .cls-4 {
        fill-rule: evenodd;
      }

      .cls-2 {
        fill: #040608;
      }

      .cls-3 {
        fill: #fdfdfd;
      }

      .cls-4 {
        fill: #767878;
      }
    </style>
  </defs>
  <!-- Generator: Adobe Illustrator 28.7.1, SVG Export Plug-In . SVG Version: 1.2.0 Build 142)  -->
  <g>
    <g id="_Слой_1" data-name="Слой_1">
      <path class="cls-2" d="M506.5,138.5c7.2-.7,13.8.8,20,4.5,43.2,42.5,86.3,85,129.5,127.5.3-23.7.7-47.3,1-71,2.1-8.4,7.3-13.9,15.5-16.5,32-.7,64-.7,96,0,8.2,2.6,13.4,8.1,15.5,16.5.3,65.7.7,131.3,1,197,36,33.7,71,68.3,105,104,4.9,13.3,1.1,23.1-11.5,29.5-23.6,1.5-47.3,2-71,1.5.2,112.3,0,224.7-.5,337-2.7,10.1-9.2,15.9-19.5,17.5-184,.7-368,.7-552,0-10.2-2.2-16.3-8.3-18.5-18.5-.5-112-.7-224-.5-336-24.7.5-49.4,0-74-1.5-13.3-7.8-16.4-18.6-9.5-32.5,120.9-118.9,242.4-237,364.5-354.5,2.9-1.8,5.9-3.3,9-4.5Z"/>
      <path class="cls-3" d="M693.5,220.5h55c.3,46.3,0,92.7-1,139-18.3-16.8-36.1-34.1-53.5-52-.5-29-.7-58-.5-87Z"/>
      <path class="cls-1" d="M828.5,491.5c-13.3.7-26.7,1.3-40,2-9.4,1.6-15.6,6.9-18.5,16-.5,113-.7,226-.5,339h-156c.2-81,0-162-.5-243-5.8-29.8-23.7-47.7-53.5-53.5-32-.7-64-.7-96,0-29,6.1-46.8,23.6-53.5,52.5-.5,81.3-.7,162.7-.5,244h-156c.2-113.3,0-226.7-.5-340-2.2-7.5-7-12.3-14.5-14.5-15.3-.2-30.7-.7-46-1.5,106.2-103,212.2-206.2,318-309.5.7-.7,1.3-.7,2,0,105.2,103.1,210.5,205.9,316,308.5Z"/>
      <path class="cls-4" d="M828.5,491.5c.5,0,.9.4,1,1-13.7,1-27.3,1.3-41,1,13.3-.7,26.7-1.3,40-2Z"/>
      <path class="cls-1" d="M465.5,589.5c30.3-.2,60.7,0,91,.5,8.9,1.9,15.1,7.1,18.5,15.5,1.5,81,2,162,1.5,243h-130c-.2-79.7,0-159.3.5-239,2.6-10.1,8.8-16.8,18.5-20Z"/>
    </g>
  </g>
</svg>