<?xml version="1.0" encoding="UTF-8"?>
<svg xmlns="http://www.w3.org/2000/svg" version="1.1" viewBox="0 0 1024 1024">
  <defs>
    <style>
      .cls-1 {
        fill: #fefefe;
      }

      .cls-1, .cls-2, .cls-3 {
        fill-rule: evenodd;
      }

      .cls-2 {
        fill: #010204;
      }

      .cls-3 {
        fill: #010203;
      }
    </style>
  </defs>
  <!-- Generator: Adobe Illustrator 28.7.1, SVG Export Plug-In . SVG Version: 1.2.0 Build 142)  -->
  <g>
    <g id="_Слой_1" data-name="Слой_1">
      <path class="cls-2" d="M426.5,129.5c65.9-4.7,120.4,17.7,163.5,67,42,55.5,51.4,116.1,28,182-7.2,18.5-17,35.4-29.5,50.5,70.5-32.5,140.5-31.1,210,4,76.9,44.9,117.3,112,121,201.5-2.4,90.4-42.4,158.2-120,203.5-52.3,27.1-107.3,34.4-165,22-77.8-20.5-132-68-162.5-142.5-20.9-59.6-18.9-118.2,6-176-40.5,40.9-81.4,81.4-122.5,121.5-50.9,38.2-107.2,49.2-169,33-72.6-26.3-113.8-77.8-123.5-154.5-4.2-59.4,13.1-111.4,52-156,70.6-71.6,141.4-142.7,212.5-213.5,28.9-23.8,61.9-38,99-42.5Z"/>
      <path class="cls-1" d="M428.5,168.5c55.2-4,100,15.4,134.5,58,38.6,58.7,37.9,117.1-2,175-38.3,41.4-77.8,81.8-118.5,121-68.7-68-137-136.3-205-205,39.6-40.4,79.6-80.2,120-119.5,21.2-15.9,44.8-25.8,71-29.5Z"/>
      <path class="cls-1" d="M208.5,345.5c69.3,67.6,137.9,135.9,206,205-26.8,27.7-54.2,54.8-82,81.5-46.1,34.6-96.1,41.6-150,21-53.6-27.6-80.9-71.8-82-132.5.2-27.6,7.3-53.3,21.5-77,6.3-10.9,13.3-21.2,21-31,21.7-22.5,43.5-44.8,65.5-67Z"/>
      <path class="cls-1" d="M674.5,443.5c80.6-2.1,141.8,30.9,183.5,99,28,54.6,31,110.6,9,168-31.2,67.4-83.7,106.2-157.5,116.5-68.9,5.2-125.7-18.3-170.5-70.5-40.2-52.5-51.5-110.9-34-175,28-81.2,84.5-127.2,169.5-138Z"/>
      <path class="cls-3" d="M684.5,501.5c11.5-.9,19,4.1,22.5,15,.5,33,.7,66,.5,99,33-.2,66,0,99,.5,12.1,3.7,16.9,11.9,14.5,24.5-2.6,7.4-7.7,11.5-15.5,12.5-32.7.5-65.3.7-98,.5.2,32,0,64-.5,96-3.7,12.1-11.8,16.9-24.5,14.5-7-2.4-11.2-7.2-12.5-14.5-.3-31.7-.7-63.3-1-95-32.4-.8-64.9-1.3-97.5-1.5-14.2-5.7-18.1-15.6-11.5-29.5,2.9-3.9,6.8-6.4,11.5-7.5,32.6-.2,65.1-.7,97.5-1.5.3-33,.7-66,1-99,2.4-7.3,7.3-11.9,14.5-14Z"/>
    </g>
  </g>
</svg>