<?xml version="1.0" encoding="UTF-8"?>
<svg xmlns="http://www.w3.org/2000/svg" version="1.1" viewBox="0 0 1024 1024">
  <defs>
    <style>
      .cls-1 {
        fill: #010101;
      }

      .cls-1, .cls-2 {
        fill-rule: evenodd;
      }

      .cls-2 {
        fill: #fefefe;
      }
    </style>
  </defs>
  <!-- Generator: Adobe Illustrator 28.7.1, SVG Export Plug-In . SVG Version: 1.2.0 Build 142)  -->
  <g>
    <g id="_Слой_1" data-name="Слой_1">
      <path class="cls-1" d="M449.5,113.5c40.7-.2,81.3,0,122,.5,10.6,2,17.5,8.1,20.5,18.5,4.5,27,8.9,54,13,81,18.2,4.8,35.5,11.8,52,21,21.9-16.4,43.7-32.9,65.5-49.5,7.8-3.5,15.5-3.2,23,1,29.8,29.8,59.7,59.7,89.5,89.5,6.9,9.4,7.2,19.1,1,29-15.6,19.5-30.9,39.2-46,59-.7,2-.7,4,0,6,3.8,4.5,6.8,9.5,9,15,3.7,10.3,7.3,20.7,11,31,26.7,5.1,53.6,9.9,80.5,14.5,7,3.6,11.8,9.1,14.5,16.5.7,43,.7,86,0,129-2.9,8.2-8.4,13.7-16.5,16.5-26.4,4.1-52.7,8.4-79,13-3.1,10.2-6.6,20.4-10.5,30.5-3.3,6.1-6.8,12.1-10.5,18,16,21.8,32.1,43.5,48.5,65,6,9.2,5.7,18.2-1,27-29.5,29.9-59.4,59.4-89.5,88.5-7.7,5-15.7,5.7-24,2-20.3-14.6-40.3-29.6-60-45-2.1-1.7-4.4-2.9-7-3.5-16,9.5-33,16.5-51,21-3.8,27.4-8,54.7-12.5,82-3.1,8.5-9,14.3-17.5,17.5-41.3.7-82.7.7-124,0-8.5-1.8-14.7-6.7-18.5-14.5-4.9-28-9.5-56-14-84-17.5-5.8-34.5-12.8-51-21-2.2.6-4.4,1.5-6.5,2.5-19.3,14.7-38.7,29.3-58,44-8.7,6-17.3,6-26,0-29.2-29.2-58.3-58.3-87.5-87.5-7.3-9-8.3-18.7-3-29,16.1-21.2,31.9-42.5,47.5-64-9.5-15.4-15.8-32.1-19-50-27.5-3.5-54.8-8-82-13.5-8.9-3.5-14-10-15.5-19.5-.7-41-.7-82,0-123,2.3-9.7,8.2-16.2,17.5-19.5,26.3-4.4,52.6-8.8,79-13,2.4-9.6,5.3-19.1,8.5-28.5,3.7-7.1,7.5-14.1,11.5-21-15.3-22-31.2-43.6-47.5-65-4.7-8.3-4.7-16.7,0-25l88.5-88.5c8.3-5.1,16.9-5.8,26-2,21.9,16.9,44.1,33.4,66.5,49.5,15.7-9.6,32.6-16.6,50.5-21,4.4-26.3,8.5-52.6,12.5-79,2.5-11,9-18.4,19.5-22Z"/>
      <path class="cls-2" d="M465.5,151.5c30.3-.2,60.7,0,91,.5,4.4,26.7,8.6,53.6,12.5,80.5,1.4,6.4,5.2,10.5,11.5,12.5,26.1,7,50.7,17.4,74,31,5.4,1.2,10.4.2,15-3,20.2-15.9,40.7-31.4,61.5-46.5,12.3,11.3,24.3,23,36,35,9.5,10.5,19.3,20.6,29.5,30.5-15.1,20.8-30.6,41.3-46.5,61.5-3.8,6-4.4,12.3-2,19,13.4,20.5,22.8,42.9,28,67,2.3,6.6,6.8,10.8,13.5,12.5,25.8,3.8,51.4,7.9,77,12.5,1,30.3,1.3,60.7,1,91-25.7,4-51.3,8.2-77,12.5-6,1.6-10.5,5.1-13.5,10.5-2.9,11.1-6.2,22.1-10,33-6.1,13.6-12.8,26.9-20,40-1.3,6.3,0,12,4,17,15,19.7,30,39.3,45,59,.4,2.3-.2,4.3-2,6-20.4,20.9-41.2,41.2-62.5,61-20.1-13.9-39.7-28.4-59-43.5-5.3-4.3-11.3-6-18-5-25,14-51.4,25-79,33-3.9,2.9-6.4,6.8-7.5,11.5-3.9,26.7-7.8,53.3-11.5,80h-90c-4.2-27-8.4-54-12.5-81-1-4.2-3.2-7.7-6.5-10.5-16.6-4.9-32.9-10.6-49-17-9.5-4.2-18.5-9.2-27-15-8.1-2.3-15.5-.6-22,5-19.2,14.5-38.3,29-57.5,43.5-22.3-21.3-44.3-43-66-65,14.9-21.3,30.5-42.3,47-63,3.7-5.7,4.3-11.7,2-18-13.2-21-22.6-43.7-28-68-2.8-7.8-8.3-12.3-16.5-13.5-25-3.7-49.8-7.9-74.5-12.5-.5-30.3-.7-60.7-.5-91,25.7-4,51.3-8.2,77-12.5,6-1.6,10.5-5.1,13.5-10.5,5.6-25.1,15.3-48.4,29-70,2.2-6,1.6-11.6-2-17-15.8-21.2-31.7-42.3-47.5-63.5,21.5-22,43.5-43.5,66-64.5,18.8,13.9,37.5,28.1,56,42.5,3.8,2.8,7.8,5.1,12,7,4.4.8,8.8.5,13-1,23.5-13.1,48.2-23.4,74-31,2.9-2.3,5.1-5.1,6.5-8.5,4.2-28,8.4-56,12.5-84Z"/>
      <path class="cls-1" d="M495.5,316.5c83.9-2.6,146.7,32,188.5,104,26.2,52.5,29.5,106.5,10,162-13.4,30.7-32.6,57.2-57.5,79.5-61.4,47.2-128.4,57.2-201,30-67-31.3-106.1-83.5-117.5-156.5-6.5-67.9,15-125,64.5-171.5,32.8-27.4,70.5-43.2,113-47.5Z"/>
      <path class="cls-2" d="M501.5,355.5c64.5-1.4,113.3,25.3,146.5,80,26.8,52.9,25.8,105.2-3,157-35.3,53.4-85.1,78.2-149.5,74.5-67.1-9.6-111.6-46.5-133.5-110.5-15.1-57-3.4-107.6,35-152,28.8-29.2,63.7-45.5,104.5-49Z"/>
    </g>
  </g>
</svg>