<?xml version="1.0" encoding="UTF-8"?>
<svg xmlns="http://www.w3.org/2000/svg" version="1.1" viewBox="0 0 1024 1024">
  <defs>
    <style>
      .cls-1 {
        fill: #eee;
      }

      .cls-1, .cls-2, .cls-3, .cls-4, .cls-5, .cls-6, .cls-7, .cls-8 {
        fill-rule: evenodd;
      }

      .cls-2 {
        fill: #fcfcfc;
      }

      .cls-3 {
        fill: #fefefe;
      }

      .cls-4 {
        fill: #020304;
      }

      .cls-5 {
        fill: #010204;
      }

      .cls-6 {
        fill: #fdfdfd;
      }

      .cls-7 {
        fill: #020204;
      }

      .cls-8 {
        fill: #7f8081;
      }
    </style>
  </defs>
  <!-- Generator: Adobe Illustrator 28.7.1, SVG Export Plug-In . SVG Version: 1.2.0 Build 142)  -->
  <g>
    <g id="_Слой_1" data-name="Слой_1">
      <path class="cls-5" d="M226.5,100.5c127.3-.2,254.7,0,382,.5,11.1,1.5,17.9,7.6,20.5,18.5.7,36.7.7,73.3,0,110-1.8,11.2-8.3,17.7-19.5,19.5-6.7.5-13.3.7-20,.5v35c44.5,5.4,76.7,28.1,96.5,68,4.9,11.5,7.5,23.5,8,36,.5,52,.7,104,.5,156,76,2.5,131.1,37.5,165.5,105,27.3,64.4,21.3,125.4-18,183-49.2,61-112.3,83.7-189.5,68-13.9,6.9-28.5,11.1-44,12.5-125.7.7-251.3.7-377,0-48.2-7.8-77-35.7-86.5-83.5-.7-149.7-.7-299.3,0-449,5.5-34.8,23.3-61.3,53.5-79.5,15.8-9.4,32.8-14.9,51-16.5v-35c-7.3.2-14.7,0-22-.5-9.3-2-15.5-7.5-18.5-16.5-.7-38.7-.7-77.3,0-116,3.2-8.2,9.1-13.5,17.5-16Z"/>
      <path class="cls-6" d="M244.5,136.5h349v77H244.5v-77Z"/>
      <path class="cls-2" d="M285.5,248.5c89.3-.2,178.7,0,268,.5.8,18.8,1.3,37.6,1.5,56.5,1.4,5.1,4.6,8.6,9.5,10.5,23.3.1,44.6,6.5,64,19,24.3,20.1,34,46,29,77.5H180.5c-3.9-51,19.1-82.2,69-93.5,8-.9,16-1.9,24-3,5.5-1.5,9-5,10.5-10.5.2-19.1.7-38.1,1.5-57Z"/>
      <path class="cls-3" d="M517.5,713.5c-1,8.2-1.3,16.5-1,25H181.5c.3-96.5,0-192.8-1-289,158.7-2,317.7-2.7,477-2v100c-58.9,15.2-101.1,50.6-126.5,106-8.1,19.2-12.6,39.2-13.5,60Z"/>
      <path class="cls-4" d="M455.5,472.5c31.2-3.2,56.4,7.5,75.5,32,11.8,19.6,14.8,40.6,9,63-4.4,11-10.4,21-18,30-32.9,32.5-65.4,65.4-97.5,98.5-21.5,21.8-47.1,28.8-77,21-32.7-12.2-50.3-35.7-53-70.5-.2-13.7,3.3-26.4,10.5-38,4.7-6,9.3-12,14-18l91.5-91.5c6.5-6.4,13.5-12.1,21-17,7.8-4.1,15.8-7.2,24-9.5Z"/>
      <path class="cls-6" d="M461.5,505.5c20.1-2.2,35,5.5,44.5,23,5.4,14,4.1,27.3-4,40-14.3,15-28.7,30-43,45-19.5-18.8-39-37.7-58.5-56.5,13.7-14,27.7-27.7,42-41,5.8-4.6,12.1-8.1,19-10.5Z"/>
      <path class="cls-3" d="M675.5,579.5c61.7-4.7,109.9,18.3,144.5,69,28.3,50.1,28.7,100.4,1,151-36.4,55.3-87.6,78.1-153.5,68.5-52-12.6-87.8-43.8-107.5-93.5-20.4-73.4.4-131.9,62.5-175.5,16.6-9.8,34.2-16.3,53-19.5Z"/>
      <path class="cls-6" d="M376.5,580.5c19.3,19,38.7,38,58,57-13.5,14-27.2,27.9-41,41.5-18.4,10.7-36,9.7-53-3-14.2-16.8-15.7-34.6-4.5-53.5,13.3-14.2,26.8-28.2,40.5-42Z"/>
      <path class="cls-7" d="M771.5,652.5c18.6-.2,25.5,8.8,20.5,27-32,34.4-63.7,69-95,104-8.9,11.9-20.1,14.7-33.5,8.5-19.9-20.2-40-40-60.5-59.5-6-15.3-1-24.6,15-28,6.3,0,11.8,2.3,16.5,6.5,13.5,14,27.5,27.5,42,40.5,26.1-26.2,51.2-53.2,75.5-81,6.1-6.6,12.6-12.6,19.5-18Z"/>
      <path class="cls-1" d="M180.5,449.5c1,96.2,1.3,192.5,1,289h335c-.3-8.5,0-16.8,1-25v26H180.5v-290Z"/>
      <path class="cls-6" d="M598.5,875.5c-120.5,1-241.2,1.3-362,1-21.1-1.6-37.2-11.3-48.5-29-3.2-6-5.5-12.4-7-19-.5-18-.7-36-.5-54h343c11.6,43.6,36.6,77.3,75,101Z"/>
      <path class="cls-8" d="M598.5,875.5c.8.3,1.5.8,2,1.5-121.5.8-242.8.7-364-.5,120.8.3,241.5,0,362-1Z"/>
    </g>
  </g>
</svg>